<?xml version="1.0" standalone="no"?> <!DOCTYPE svg PUBLIC "-//W3C//DTD SVG 1.0//EN" "http://www.w3.org/TR/2001/REC-SVG-20010904/DTD/svg10.dtd" > <svg xmlns="http://www.w3.org/2000/svg" width="100%" height="100%">
<defs >
<font id="Graphik-Extralight" horiz-adv-x="501" ><font-face
    font-family=""
    units-per-em="1000"
    panose-1="2 11 3 3 3 2 2 6 2 3"
    ascent="818"
    descent="-182"
    alphabetic="0" />
<missing-glyph horiz-adv-x="500" />
<glyph unicode=" " glyph-name="space" horiz-adv-x="235" />
<glyph unicode="!" glyph-name="exclam" horiz-adv-x="262" d="M131 -5Q119 -5 111 3T102 24Q102 36 110 44T131 53Q143 53 151 45T160 24Q160 12 152 4T131 -5ZM113 715H151L146 165H118L113 715Z" />
<glyph unicode="&quot;" glyph-name="quotedbl" horiz-adv-x="261" d="M57 715H94L89 529H62L57 715ZM167 715H205L199 529H172L167 715Z" />
<glyph unicode="#" glyph-name="numbersign" horiz-adv-x="484" d="M292 303H156L127 99H97L127 303H32V333H131L156 505H60V535H161L187 715H217L190 535H326L352 715H382L355 535H452V505H351L326 333H424V303H321L292 99H262L292 303ZM161 333H296L321 505H186L161
333Z" />
<glyph unicode="$" glyph-name="dollar" horiz-adv-x="593" d="M280 -6Q222 -3 180 13T109 57T64 120T42 197H77Q82 164 95 134T132 80T192 41T280 23V360Q169 379 119 421T68 540Q68 580 83 613T127 669T194 706T280 722V813H311V721Q399 716 451 672T515 553H481Q469
616 428 651T311 691V387Q369 378 411 365T482 329T523 273T537 190Q537 150 522 115T477 53T406 10T311 -7V-135H280V-6ZM502 189Q502 229 492 257T458 304T399 336T311 356V23Q356 24 391 37T451 72T489 124T502 189ZM102 542Q102 512 111 488T140 446T195 415T280
392V692Q198 689 150 651T102 542Z" />
<glyph unicode="%" glyph-name="percent" horiz-adv-x="755" d="M196 435Q220 435 242 443T280 468T305 509T315 563Q315 623 281 657T196 691Q172 691 151 682T113 657T87 616T77 562Q77 532 86 509T112 469T150 444T196 435ZM196 407Q167 407 140 418T91 449T58
497T45 561Q45 597 57 626T90 676T138 708T196 720Q227 720 254 709T303 677T336 627T348 563Q348 527 336 498T302 449T254 418T196 407ZM593 715H627L160 0H126L593 715ZM557 23Q606 23 641 56T676 151Q676 211 642 245T557 279Q533 279 512 270T474 245T448
204T438 149Q438 119 447 96T473 56T511 32T557 23ZM557 -6Q528 -6 501 5T452 36T419 84T406 149Q406 184 418 213T451 263T499 295T557 307Q588 307 615 296T664 264T697 214T709 151Q709 115 697 86T663 36T615 5T557 -6Z" />
<glyph unicode="&amp;" glyph-name="ampersand" horiz-adv-x="649" d="M490 147L617 0H574L471 119Q454 95 433 73T385 32T326 4T253 -7Q205 -7 167 7T102 47T61 108T47 185Q47 227 62 259T103 318T161 365T227 403Q189 448 169 486T148 569Q148 602 160 629T192
677T241 708T301 719Q334 719 360 708T404 678T433 632T443 577Q443 545 431 519T396 470T343 430T277 395L470 172L572 357H606L490 147ZM254 23Q288 23 317 32T370 58T414 97T450 143L245 382Q214 367 185 349T134 306T97 253T83 187Q83 151 94 121T127 70T181
36T254 23ZM182 568Q182 528 202 493T260 415Q292 430 319 447T367 483T398 526T410 577Q410 627 381 658T300 690Q249 690 216 657T182 568Z" />
<glyph unicode="&apos;" glyph-name="quotesingle" horiz-adv-x="151" d="M57 715H94L89 529H62L57 715Z" />
<glyph unicode="(" glyph-name="parenleft" horiz-adv-x="285" d="M221 -148Q187 -108 157 -59T105 47T70 171T57 312Q57 387 70 453T105 576T157 683T221 773H256Q222 731 193 683T141 577T105 454T92 312Q92 235 105 170T140 48T192 -57T256 -148H221V-148Z" />
<glyph unicode=")" glyph-name="parenright" horiz-adv-x="285" d="M29 -147Q63 -105 92 -57T144 48T180 170T193 313Q193 389 180 455T145 578T93 683T29 774H64Q98 733 128 684T180 578T216 454T229 313Q229 238 216 172T181 49T128 -58T64 -147H29V-147Z" />
<glyph unicode="*" glyph-name="asterisk" horiz-adv-x="415" d="M91 451L187 572L49 618L59 647L194 595L192 743H224L222 595L356 647L366 618L228 572L323 451L297 432L207 555L117 432L91 451Z" />
<glyph unicode="+" glyph-name="plus" horiz-adv-x="505" d="M237 327H37V357H237V572H268V357H468V327H268V113H237V327Z" />
<glyph unicode="," glyph-name="comma" horiz-adv-x="195" d="M31 -101L96 59L131 44L56 -113L31 -101Z" />
<glyph unicode="-" glyph-name="hyphen" horiz-adv-x="333" d="M63 295H270V262H63V295Z" />
<glyph unicode="." glyph-name="period" horiz-adv-x="195" d="M98 -5Q85 -5 77 3T69 24Q69 36 77 44T98 53Q110 53 118 45T126 24Q126 12 118 4T98 -5Z" />
<glyph unicode="/" glyph-name="slash" horiz-adv-x="383" d="M308 776H342L51 -148H17L308 776Z" />
<glyph unicode="0" glyph-name="zero" horiz-adv-x="646" d="M324 24Q438 24 496 100T555 324V397Q555 465 539 519T493 612T420 671T321 692Q211 692 151 615T91 394V321Q91 173 153 99T324 24ZM324 -7Q196 -7 126 78T55 321V394Q55 550 125 636T321 722Q383
722 433 700T518 635T572 533T591 396V323Q591 166 523 80T324 -7Z" />
<glyph unicode="1" glyph-name="one" horiz-adv-x="348" d="M189 674L24 561V595L198 715H225V0H189V674Z" />
<glyph unicode="2" glyph-name="two" horiz-adv-x="527" d="M21 9L310 304Q371 366 399 419T427 532Q427 612 381 652T260 692Q186 692 137 649T77 515H43Q47 564 65 603T111 668T178 708T260 722Q304 722 341 710T405 673T447 613T463 531Q463 466 431 407T333
283L80 31H477V0H21V9Z" />
<glyph unicode="3" glyph-name="three" horiz-adv-x="544" d="M268 -7Q214 -7 172 9T99 54T53 119T35 196H68Q71 161 85 130T123 76T184 38T268 24Q356 24 406 68T457 197Q457 231 447 261T415 312T362 346T285 359H235V390H282Q323 390 351 402T398 434T424 481T433
535Q433 568 423 596T393 646T344 679T276 691Q237 691 205 679T150 646T113 595T95 533H63Q66 573 82 607T127 667T193 707T276 722Q321 722 357 708T418 668T456 609T469 536Q469 478 437 435T349 377Q413 364 453 318T494 197Q494 149 478 111T431 47T360 7T268
-7Z" />
<glyph unicode="4" glyph-name="four" horiz-adv-x="581" d="M405 167H30V178L387 715H441V198H540V167H441V0H405V167ZM405 198V690L80 198H405Z" />
<glyph unicode="5" glyph-name="five" horiz-adv-x="545" d="M260 -7Q208 -7 168 8T99 49T55 108T36 178H70Q74 148 87 120T124 71T181 37T260 24Q354 24 406 79T458 230Q458 275 444 312T405 375T346 416T273 430Q205 430 161 406T90 347H76V715H458V684H107V395Q130
419 173 440T277 461Q322 461 362 445T431 399T478 326T495 230Q495 175 478 131T430 57T356 10T260 -7Z" />
<glyph unicode="6" glyph-name="six" horiz-adv-x="588" d="M304 -7Q240 -7 194 15T118 75T74 165T60 279V352Q60 451 79 521T134 636T217 701T323 722Q398 722 452 685T518 566H484Q473 631 432 661T321 691Q271 691 230 674T160 617T113 515T96 360V312Q108
346 130 372T181 415T242 440T306 449Q363 449 407 432T480 384T525 313T540 223Q540 172 523 130T475 58T401 10T304 -7ZM304 23Q350 23 387 37T450 78T490 141T504 222Q504 311 454 365T303 419Q264 419 228 407T163 370T119 311T102 231Q102 192 113 155T149
88T212 41T304 23Z" />
<glyph unicode="7" glyph-name="seven" horiz-adv-x="491" d="M428 685H26V715H474V708L189 0H151L428 685Z" />
<glyph unicode="8" glyph-name="eight" horiz-adv-x="568" d="M285 -7Q238 -7 195 6T120 44T68 108T49 197Q49 235 62 266T98 322T152 362T221 386Q192 393 167 406T122 440T91 486T80 546Q80 587 97 619T142 675T208 710T285 722Q325 722 362 710T427 675T471
620T488 548Q488 514 478 488T449 441T406 407T352 386Q389 378 419 363T472 324T506 269T519 199Q519 148 501 110T451 45T377 6T285 -7ZM285 24Q328 24 364 35T427 68T468 123T483 200Q483 241 468 272T425 326T363 359T287 370Q246 370 210 359T146 325T102
271T85 198Q85 154 101 122T144 67T207 35T285 24ZM288 400Q322 400 352 409T404 437T439 483T452 548Q452 579 440 605T405 651T352 681T285 692Q249 692 218 682T165 652T130 606T117 546Q117 510 132 483T171 437T225 409T288 400Z" />
<glyph unicode="9" glyph-name="nine" horiz-adv-x="586" d="M276 -7Q195 -7 137 34T63 156H98Q112 92 158 58T276 24Q326 24 366 38T434 87T477 182T492 334V397Q480 364 458 339T406 298T345 274T279 266Q223 266 180 283T107 330T63 401T48 492Q48 544 65 586T112
659T186 705T283 722Q347 722 393 701T470 642T514 553T528 442V337Q528 239 511 173T461 67T381 10T276 -7ZM282 295Q322 295 359 307T424 343T470 401T487 478Q487 518 475 556T439 625T376 673T283 692Q238 692 201 678T138 637T98 574T84 493Q84 449 96 413T134
351T196 310T282 295Z" />
<glyph unicode=":" glyph-name="colon" horiz-adv-x="202" d="M101 -5Q89 -5 81 3T72 24Q72 36 80 44T101 53Q113 53 121 45T130 24Q130 12 122 4T101 -5ZM101 337Q89 337 81 345T72 366Q72 378 80 386T101 395Q113 395 121 387T130 366Q130 354 122 346T101 337Z" />
<glyph unicode=";" glyph-name="semicolon" horiz-adv-x="202" d="M25 -101L90 59L125 44L50 -113L25 -101ZM103 337Q91 337 83 345T75 366Q75 378 83 386T103 395Q116 395 124 387T132 366Q132 354 124 346T103 337Z" />
<glyph unicode="&lt;" glyph-name="less" horiz-adv-x="491" d="M49 317V327L433 534V500L101 322L433 144V110L49 317Z" />
<glyph unicode="=" glyph-name="equal" horiz-adv-x="484" d="M40 254H444V224H40V254ZM40 413H444V383H40V413Z" />
<glyph unicode="&gt;" glyph-name="greater" horiz-adv-x="491" d="M58 144L391 322L58 500V534L442 327V317L58 110V144Z" />
<glyph unicode="?" glyph-name="question" horiz-adv-x="469" d="M193 227Q193 256 200 279T221 323T252 362T292 404Q311 423 328 440T357 476T377 516T385 565Q385 621 350 656T240 692Q168 692 123 649T72 530H38Q41 574 56 609T99 670T162 708T241 722Q286
722 319 710T375 677T409 628T420 566Q420 534 412 510T390 465T356 426T316 385Q295 364 279 346T250 310T232 271T225 224V165H193V227ZM209 -5Q197 -5 189 3T180 24Q180 36 188 44T209 53Q221 53 229 45T238 24Q238 12 230 4T209 -5Z" />
<glyph unicode="@" glyph-name="at" horiz-adv-x="905" d="M461 -147Q360 -147 283 -113T154 -22T74 109T47 263Q47 354 82 432T175 567T310 656T471 688Q561 688 633 660T756 583T834 466T862 322Q862 254 847 207T808 129T753 86T693 72Q641 72 612 100T581
182Q573 163 559 143T524 105T479 76T423 65Q388 65 359 77T309 111T277 166T265 239Q265 289 281 331T323 405T385 453T458 471Q513 471 549 439T594 362L605 462H639L612 229Q604 171 623 136T694 100Q722 100 746 113T789 154T818 222T829 321Q829 394 805 456T735
563T623 633T471 659Q391 659 320 629T196 546T112 421T80 264Q80 189 104 120T176 -2T295 -86T461 -118Q516 -118 561 -109T642 -83T707 -46T755 0H789Q771 -29 741 -55T668 -102T574 -135T461 -147ZM427 93Q460 93 488 109T538 152T572 216T585 292Q585 363 551
402T459 442Q428 442 400 428T349 386T314 322T300 239Q300 170 335 132T427 93Z" />
<glyph unicode="A" glyph-name="A" horiz-adv-x="641" d="M296 715H344L610 0H574L489 228H150L66 0H32L296 715ZM161 258H478L319 686L161 258Z" />
<glyph unicode="B" glyph-name="B" horiz-adv-x="592" d="M94 715H289Q335 715 373 705T438 672T481 616T497 536V532Q497 466 462 428T366 375Q533 349 533 199V195Q533 98 476 49T319 0H94V715ZM318 30Q407 30 452 72T498 195V199Q498 278 447 318T295 358H129V30H318ZM291
387Q375 387 418 425T461 533V537Q461 612 416 648T288 685H129V387H291Z" />
<glyph unicode="C" glyph-name="C" horiz-adv-x="723" d="M382 -7Q307 -7 246 19T141 93T75 207T51 353V361Q51 440 77 506T148 621T253 695T382 722Q437 722 485 708T571 667T634 599T669 506H633Q614 595 550 643T382 692Q319 692 265 668T172 600T111 496T88
362V354Q88 279 109 219T168 115T260 48T383 24Q486 24 555 77T645 225H678Q668 170 642 127T577 54T489 9T382 -7Z" />
<glyph unicode="D" glyph-name="D" horiz-adv-x="680" d="M273 31Q354 31 413 55T513 123T572 226T592 356V364Q592 432 573 491T515 593T415 660T272 685H130V31H273ZM94 715H277Q364 715 429 688T539 614T606 503T629 364V356Q629 282 608 217T543 104T432 28T275
0H94V715Z" />
<glyph unicode="E" glyph-name="E" horiz-adv-x="566" d="M94 715H500V685H130V384H431V353H130V31H518V0H94V715Z" />
<glyph unicode="F" glyph-name="F" horiz-adv-x="537" d="M94 715H493V685H130V381H417V351H130V0H94V715Z" />
<glyph unicode="G" glyph-name="G" horiz-adv-x="750" d="M393 -7Q313 -7 250 19T142 94T75 208T51 353V361Q51 440 77 506T148 620T256 695T389 722Q440 722 486 710T571 673T635 610T673 519H637Q615 609 548 650T390 692Q324 692 269 668T173 600T111 495T88
362V354Q88 280 108 219T168 115T263 48T393 24Q525 24 593 97T663 303V310H436V341H698V308Q698 231 676 172T615 74T519 14T393 -7Z" />
<glyph unicode="H" glyph-name="H" horiz-adv-x="709" d="M94 715H130V376H579V715H615V0H579V345H130V0H94V715Z" />
<glyph unicode="I" glyph-name="I" horiz-adv-x="234" d="M99 715H135V0H99V715Z" />
<glyph unicode="J" glyph-name="J" horiz-adv-x="389" d="M137 -5Q101 -5 76 1T36 15V47Q54 39 78 32T135 25Q199 25 235 59T272 173V715H308V172Q308 125 296 92T261 37T207 5T137 -5Z" />
<glyph unicode="K" glyph-name="K" horiz-adv-x="588" d="M135 364L500 715H542L179 367L560 0H515L135 364ZM94 715H130V0H94V715Z" />
<glyph unicode="L" glyph-name="L" horiz-adv-x="528" d="M94 715H130V31H490V0H94V715Z" />
<glyph unicode="M" glyph-name="M" horiz-adv-x="849" d="M94 715H147L419 66L696 715H749V0H713V672L425 0H411L128 672V0H94V715Z" />
<glyph unicode="N" glyph-name="N" horiz-adv-x="707" d="M94 715H145L578 48V715H613V0H569L129 678V0H94V715Z" />
<glyph unicode="O" glyph-name="O" horiz-adv-x="795" d="M400 24Q467 24 523 49T620 119T684 224T707 356V364Q707 433 684 492T620 596T523 666T398 692Q330 692 273 667T175 597T111 492T88 361V353Q88 283 111 223T177 119T276 49T400 24ZM400 -7Q325 -7 261
21T151 98T78 212T51 353V361Q51 437 77 503T151 617T261 694T398 722Q472 722 535 695T644 619T717 505T744 364V356Q744 280 718 214T645 99T536 22T400 -7Z" />
<glyph unicode="P" glyph-name="P" horiz-adv-x="559" d="M94 715H274Q326 715 370 705T446 671T495 610T513 520V516Q513 462 496 424T447 362T372 326T276 315H129V0H94V715ZM277 345Q323 345 360 354T423 384T463 437T477 516V520Q477 566 463 598T421 649T357
676T275 685H129V345H277Z" />
<glyph unicode="Q" glyph-name="Q" horiz-adv-x="795" d="M591 52Q550 23 502 8T400 -7Q325 -7 261 21T151 98T78 212T51 353V361Q51 437 77 503T151 617T261 694T398 722Q472 722 535 695T644 619T717 505T744 364V356Q744 268 710 195T616 71L703 -20L681 -42L591
52ZM400 24Q448 24 491 37T569 75L456 195L479 217L595 94Q648 139 677 206T707 356V364Q707 433 684 492T620 596T523 666T398 692Q330 692 273 667T175 597T111 492T88 361V353Q88 283 111 223T177 119T276 49T400 24Z" />
<glyph unicode="R" glyph-name="R" horiz-adv-x="593" d="M94 715H277Q329 715 373 705T449 673T498 615T516 528V524Q516 479 502 446T463 391T403 355T326 338L558 0H517L287 335H129V0H94V715ZM278 365Q371 365 425 401T480 524V528Q480 572 466 602T424 650T360
677T278 685H129V365H278Z" />
<glyph unicode="S" glyph-name="S" horiz-adv-x="586" d="M299 -7Q236 -7 190 9T112 52T63 117T39 197H74Q79 162 93 131T135 76T202 38T299 24Q346 24 383 36T445 71T484 123T498 189Q498 231 487 259T452 306T389 337T295 357Q175 374 122 417T68 540Q68 582
84 615T129 672T199 709T290 722Q386 722 441 678T510 553H476Q463 619 419 655T290 692Q202 692 153 654T103 542Q103 510 112 486T145 443T206 411T300 390Q361 381 405 368T477 332T520 275T534 190Q534 149 518 113T472 51T398 9T299 -7Z" />
<glyph unicode="T" glyph-name="T" horiz-adv-x="558" d="M261 685H31V715H528V685H297V0H261V685Z" />
<glyph unicode="U" glyph-name="U" horiz-adv-x="674" d="M336 -5Q217 -5 149 60T80 253V715H116V256Q116 140 173 83T336 26Q451 26 504 85T557 269V715H593V264Q593 137 530 66T336 -5Z" />
<glyph unicode="V" glyph-name="V" horiz-adv-x="626" d="M29 715H64L319 37L563 715H597L340 0H297L29 715Z" />
<glyph unicode="W" glyph-name="W" horiz-adv-x="915" d="M32 715H68L244 52L446 715H471L662 50L850 715H883L680 0H642L458 648L260 0H223L32 715Z" />
<glyph unicode="X" glyph-name="X" horiz-adv-x="638" d="M300 372L70 715H110L323 398L535 715H573L342 371L592 0H552L319 345L84 0H47L300 372Z" />
<glyph unicode="Y" glyph-name="Y" horiz-adv-x="565" d="M272 322L22 715H63L291 353L506 715H543L308 322V0H272V322Z" />
<glyph unicode="Z" glyph-name="Z" horiz-adv-x="582" d="M27 9L493 685H63V715H545V707L81 31H539V0H27V9Z" />
<glyph unicode="[" glyph-name="bracketleft" horiz-adv-x="331" d="M96 776H290V748H131V-120H290V-148H96V776Z" />
<glyph unicode="\" glyph-name="backslash" horiz-adv-x="383" d="M41 776H75L366 -148H332L41 776Z" />
<glyph unicode="]" glyph-name="bracketright" horiz-adv-x="331" d="M40 -120H200V748H40V776H234V-148H40V-120Z" />
<glyph unicode="^" glyph-name="asciicircum" horiz-adv-x="461" d="M214 715H247L414 431H378L230 682L83 431H47L214 715Z" />
<glyph unicode="_" glyph-name="underscore" horiz-adv-x="387" d="M-1 -117H388V-146H-1V-117Z" />
<glyph unicode="`" glyph-name="grave" horiz-adv-x="400" d="M104 747H145L217 600H188L104 747Z" />
<glyph unicode="a" glyph-name="a" horiz-adv-x="521" d="M225 -8Q144 -8 95 29T46 139Q46 184 65 214T116 263T191 288T281 296H411V347Q411 428 376 464T265 501Q202 501 158 473T103 380H69Q74 419 92 447T136 494T196 522T266 531Q354 531 399 486T445 347V0H411V89Q388
50 342 21T225 -8ZM227 21Q264 21 297 32T356 61T396 105T411 160V268H281Q239 268 203 263T139 243T96 204T80 139Q80 82 117 52T227 21Z" />
<glyph unicode="b" glyph-name="b" horiz-adv-x="602" d="M328 -8Q285 -8 250 5T189 39T144 86T115 140V0H81V773H115V379Q126 409 146 436T194 485T255 518T328 531Q376 531 418 513T491 460T541 376T560 266V258Q560 195 542 146T493 63T419 10T328 -8ZM326
22Q369 22 405 38T468 84T510 157T525 257V265Q525 322 509 366T466 440T402 485T325 501Q286 501 248 486T181 440T133 366T115 265V257Q115 201 132 158T178 84T245 38T326 22Z" />
<glyph unicode="c" glyph-name="c" horiz-adv-x="547" d="M288 -8Q237 -8 192 11T114 65T61 149T42 257V265Q42 325 61 374T114 458T193 512T289 531Q328 531 364 520T429 487T477 434T502 362H468Q463 396 447 422T407 465T353 492T289 501Q245 501 207 485T139
438T94 364T77 265V257Q77 203 93 160T138 86T205 39T288 22Q324 22 355 32T411 62T453 110T476 177H508Q502 135 483 101T435 43T369 5T288 -8Z" />
<glyph unicode="d" glyph-name="d" horiz-adv-x="602" d="M277 -8Q228 -8 185 9T111 61T61 144T42 256V264Q42 325 61 374T113 458T190 512T285 531Q327 531 360 519T417 487T459 440T487 387V773H521V0H487V140Q478 114 460 88T415 40T354 6T277 -8ZM279 22Q321
22 359 38T425 84T471 157T488 257V265Q488 322 473 366T430 440T367 485T287 501Q243 501 205 485T139 439T94 365T77 265V257Q77 201 92 157T135 83T199 38T279 22Z" />
<glyph unicode="e" glyph-name="e" horiz-adv-x="545" d="M286 -8Q229 -8 184 11T107 66T59 150T42 257V265Q42 323 60 372T109 456T184 511T279 531Q327 531 368 515T439 467T486 388T503 279V264H77Q78 149 131 86T286 22Q354 22 401 52T465 144H499Q481 71
424 32T286 -8ZM469 293Q466 397 415 449T279 501Q237 501 202 486T140 444T97 379T78 293H469Z" />
<glyph unicode="f" glyph-name="f" horiz-adv-x="324" d="M107 494H25V523H107V622Q107 664 118 693T149 741T195 767T251 776Q268 776 279 775T305 768V738Q294 742 281 744T251 747Q228 747 209 741T174 720T151 683T142 625V523H298V494H142V0H107V494Z" />
<glyph unicode="g" glyph-name="g" horiz-adv-x="602" d="M286 -187Q230 -187 189 -174T119 -140T74 -90T53 -30H88Q98 -84 145 -120T285 -157Q328 -157 365 -147T429 -113T471 -54T487 36V161Q478 135 460 109T415 63T354 30T277 17Q228 17 185 34T111 83T61
162T42 268V276Q42 333 61 380T113 460T190 512T285 531Q327 531 360 520T417 489T459 445T487 392V523H521V34Q521 -24 504 -66T455 -135T380 -174T286 -187ZM279 46Q321 46 359 61T425 105T471 175T488 270V277Q488 330 473 372T430 442T367 486T287 501Q243
501 205 486T139 442T94 372T77 277V269Q77 216 92 175T135 105T199 61T279 46Z" />
<glyph unicode="h" glyph-name="h" horiz-adv-x="573" d="M81 773H115V409Q124 433 142 455T185 494T242 521T310 531Q395 531 446 482T497 323V0H463V324Q463 417 422 459T305 501Q270 501 236 489T175 454T132 397T115 317V0H81V773Z" />
<glyph unicode="i" glyph-name="i" horiz-adv-x="200" d="M83 523H117V0H83V523ZM100 637Q89 637 81 645T73 664Q73 675 81 682T100 690Q111 690 118 683T126 664Q126 653 119 645T100 637Z" />
<glyph unicode="j" glyph-name="j" horiz-adv-x="200" d="M6 -156Q51 -152 67 -130T83 -60V523H117V-58Q117 -121 93 -152T6 -186V-156ZM100 637Q89 637 81 645T73 664Q73 675 81 682T100 690Q111 690 118 683T126 664Q126 653 119 645T100 637Z" />
<glyph unicode="k" glyph-name="k" horiz-adv-x="468" d="M118 277L393 523H435L160 278L451 0H407L118 277ZM81 773H115V0H81V773Z" />
<glyph unicode="l" glyph-name="l" horiz-adv-x="201" d="M83 773H118V0H83V773Z" />
<glyph unicode="m" glyph-name="m" horiz-adv-x="900" d="M81 523H115V412Q124 435 140 456T180 494T233 521T296 531Q360 531 403 501T460 402Q483 460 534 495T651 531Q690 531 722 520T776 485T811 423T824 329V0H790V330Q790 422 753 461T646 501Q613 501
582 489T526 454T486 397T470 318V0H436V330Q436 422 399 461T292 501Q259 501 227 489T171 454T131 397T115 318V0H81V523Z" />
<glyph unicode="n" glyph-name="n" horiz-adv-x="573" d="M81 523H115V409Q124 433 142 455T185 494T242 521T310 531Q395 531 446 482T497 323V0H463V324Q463 417 422 459T305 501Q270 501 236 489T175 454T132 397T115 317V0H81V523Z" />
<glyph unicode="o" glyph-name="o" horiz-adv-x="583" d="M292 22Q336 22 375 38T443 85T489 159T506 258V266Q506 321 489 365T443 439T375 485T293 501Q249 501 210 485T142 438T95 364T77 265V257Q77 203 94 160T140 86T208 39T292 22ZM291 -8Q240 -8 195 11T115
66T62 150T42 257V265Q42 324 62 372T116 456T196 510T293 530Q344 530 389 511T468 458T521 375T541 266V258Q541 199 521 150T467 66T388 12T291 -8Z" />
<glyph unicode="p" glyph-name="p" horiz-adv-x="602" d="M81 523H115V379Q126 409 146 436T194 485T255 518T328 531Q376 531 418 513T491 460T541 376T560 266V258Q560 195 542 146T493 63T419 10T328 -8Q285 -8 250 5T189 39T144 86T115 140V-182H81V523ZM326
22Q369 22 405 38T468 84T510 157T525 257V265Q525 322 509 366T466 440T402 485T325 501Q286 501 248 486T181 440T133 366T115 265V257Q115 201 132 158T178 84T245 38T326 22Z" />
<glyph unicode="q" glyph-name="q" horiz-adv-x="602" d="M487 140Q478 114 460 88T415 40T354 6T277 -8Q228 -8 185 9T111 61T61 144T42 256V264Q42 325 61 374T113 458T190 512T285 531Q327 531 360 519T417 487T459 440T487 387V523H521V-182H487V140ZM279
22Q321 22 359 38T425 84T471 157T488 257V265Q488 322 473 366T430 440T367 485T287 501Q243 501 205 485T139 439T94 365T77 265V257Q77 201 92 157T135 83T199 38T279 22Z" />
<glyph unicode="r" glyph-name="r" horiz-adv-x="331" d="M81 523H115V403Q125 428 140 450T178 489T230 516T296 528V497Q259 495 226 484T169 448T130 385T115 292V0H81V523Z" />
<glyph unicode="s" glyph-name="s" horiz-adv-x="456" d="M235 -9Q144 -9 93 36T36 154H69Q77 96 116 58T235 20Q306 20 343 53T380 136Q380 164 373 183T348 216T302 237T234 254Q188 262 154 272T98 299T65 338T54 396Q54 427 67 451T104 493T158 520T225 530Q296
530 343 498T402 394H369Q348 501 224 501Q162 501 124 473T86 396Q86 370 94 353T121 322T170 300T242 284Q285 276 317 266T371 240T403 199T414 138Q414 107 402 81T367 34T311 3T235 -9Z" />
<glyph unicode="t" glyph-name="t" horiz-adv-x="328" d="M221 -7Q165 -7 134 25T102 123V494H23V523H102V642H136V523H282V494H136V125Q136 71 160 47T223 23Q244 23 259 26T289 34V4Q276 -1 261 -4T221 -7Z" />
<glyph unicode="u" glyph-name="u" horiz-adv-x="569" d="M262 -8Q220 -8 186 3T127 38T90 100T76 193V523H110V194Q110 102 152 63T267 23Q301 23 335 34T395 68T437 125T454 204V523H488V0H454V112Q445 88 428 66T386 28T330 2T262 -8Z" />
<glyph unicode="v" glyph-name="v" horiz-adv-x="508" d="M26 523H63L256 33L447 523H482L278 0H232L26 523Z" />
<glyph unicode="w" glyph-name="w" horiz-adv-x="765" d="M30 523H66L217 41L370 523H399L548 41L701 523H735L569 0H528L384 466L235 0H194L30 523Z" />
<glyph unicode="x" glyph-name="x" horiz-adv-x="500" d="M228 271L42 523H83L249 296L412 523H451L269 273L470 0H429L248 248L68 0H30L228 271Z" />
<glyph unicode="y" glyph-name="y" horiz-adv-x="495" d="M234 40L26 523H62L252 79L433 523H469L177 -182H142L234 40Z" />
<glyph unicode="z" glyph-name="z" horiz-adv-x="468" d="M26 7L385 494H56V523H439V516L82 30H432V0H26V7Z" />
<glyph unicode="{" glyph-name="braceleft" horiz-adv-x="351" d="M311 -145Q262 -145 226 -135T167 -103T137 -43T141 48L165 168Q171 197 168 221T150 264T109 292T43 302V330Q122 331 149 368T165 464L141 585Q130 639 137 675T166 734T225 767T311 777V749Q271
749 241 742T193 716T169 667T173 586L197 463Q204 430 200 405T184 363T151 334T106 316Q131 310 151 299T183 270T200 227T197 169L173 46Q164 -3 169 -34T192 -84T241 -109T311 -117V-145V-145Z" />
<glyph unicode="|" glyph-name="bar" horiz-adv-x="233" d="M101 776H132V-148H101V776Z" />
<glyph unicode="}" glyph-name="braceright" horiz-adv-x="351" d="M40 -117Q80 -117 110 -110T159 -84T182 -35T178 46L154 169Q141 236 168 270T245 316Q195 328 168 362T154 463L178 586Q188 635 183 666T159 716T111 741T40 749V777Q89 777 125 767T184 735T214
676T211 585L186 464Q180 435 183 411T201 368T242 340T308 330V302Q268 302 242 292T202 264T184 222T186 168L211 48Q221 -6 214 -43T185 -102T126 -135T40 -145V-117Z" />
<glyph unicode="~" glyph-name="asciitilde" horiz-adv-x="433" d="M48 237Q53 282 77 309T138 336Q162 336 182 326T221 303T258 281T295 270Q320 270 336 290T355 338H385Q380 293 356 266T296 239Q272 239 251 249T212 272T175 294T139 305Q113 305 98 285T78
237H48V237Z" />
<glyph unicode="&#xa0;" glyph-name="uni00A0" horiz-adv-x="235" />
<glyph unicode="&#xa1;" glyph-name="exclamdown" horiz-adv-x="263" d="M116 434H144L149 -117H111L116 434ZM131 546Q119 546 111 554T103 574Q103 586 111 594T131 603Q144 603 152 595T160 574Q160 563 152 555T131 546Z" />
<glyph unicode="&#xa2;" glyph-name="cent" horiz-adv-x="546" d="M271 -7Q223 -4 181 15T108 68T60 150T42 257V265Q42 324 60 372T109 454T181 507T271 530V629H302V530Q339 528 373 516T434 483T479 431T502 362H468Q463 394 449 419T412 461T361 488T302 500V22Q335
24 364 35T416 66T454 113T476 177H508Q502 137 484 104T439 47T377 9T302 -7V-135H271V-7ZM77 257Q77 203 92 161T133 89T194 42T271 22V500Q230 497 195 481T133 434T92 362T77 265V257Z" />
<glyph unicode="&#xa3;" glyph-name="sterling" horiz-adv-x="585" d="M50 363H124Q113 398 105 436T97 520Q97 566 113 603T157 666T225 707T311 722Q407 722 459 673T519 543H484Q473 614 433 652T311 691Q272 691 239 679T183 644T147 590T134 520Q134 474
142 437T161 363H400V334H170Q178 302 184 269T191 195Q191 168 185 145T169 102Q199 100 229 88T290 61T350 36T409 24Q460 24 488 54T520 140H553Q548 72 510 33T412 -7Q376 -7 344 5T280 32T220 59T163 72Q125 72 104 52T77 0H44Q49 33 70 62T133 99Q144 119
151 143T158 195Q158 234 151 267T134 334H50V363Z" />
<glyph unicode="&#xa5;" glyph-name="yen" horiz-adv-x="531" d="M65 347H247L28 715H67L274 366L467 715H503L299 347H477V318H291V211H477V182H291V0H255V182H65V211H255V318H65V347Z" />
<glyph unicode="&#xa6;" glyph-name="brokenbar" horiz-adv-x="235" d="M101 297H132V-148H101V297ZM101 776H132V367H101V776Z" />
<glyph unicode="&#xa7;" glyph-name="section" horiz-adv-x="532" d="M266 -137Q228 -137 196 -128T140 -99T101 -53T83 10H119Q124 -45 163 -76T266 -107Q332 -107 365 -75T398 12Q398 42 390 63T362 100T312 127T236 151Q194 162 160 175T101 206T63 250T49
312Q49 339 60 362T89 402T133 432T187 450Q150 471 130 499T110 578Q110 611 123 638T158 684T211 713T274 724Q347 724 388 688T435 585H400Q395 638 366 666T275 694Q220 694 182 665T144 579Q144 551 152 531T178 496T226 468T299 442Q341 430 375 416T433
384T470 340T484 280Q484 223 448 190T354 143Q393 123 412 92T432 12Q432 -21 421 -48T388 -95T335 -126T266 -137ZM325 160Q384 171 416 199T449 278Q449 305 439 324T408 359T359 385T292 409L216 434Q188 429 164 419T122 394T94 359T84 314Q84 285 95 265T127
231T177 205T244 183L325 160Z" />
<glyph unicode="&#xa8;" glyph-name="dieresis" horiz-adv-x="400" d="M123 638Q112 638 105 645T97 664Q97 675 104 682T123 690Q134 690 141 683T149 664Q149 653 142 646T123 638ZM277 638Q266 638 259 645T251 664Q251 675 258 682T277 690Q288 690 295 683T303
664Q303 653 296 646T277 638Z" />
<glyph unicode="&#xa9;" glyph-name="copyright" horiz-adv-x="844" d="M425 148Q380 148 344 163T282 206T242 272T228 358V365Q228 411 243 449T285 516T347 559T424 575Q490 575 537 542T595 445H562Q551 495 516 521T424 547Q389 547 360 534T308 497T274
440T262 365V359Q262 274 306 226T425 177Q482 177 519 205T568 288H600Q594 255 579 229T541 185T489 158T425 148ZM421 -9Q345 -9 278 19T162 96T84 212T55 357Q55 433 83 500T161 617T278 695T423 724Q501 724 568 696T684 618T761 502T789 359Q789 281 761
214T683 97T566 19T421 -9ZM421 17Q491 17 553 43T661 114T733 222T760 359Q760 431 734 493T663 600T557 672T423 698Q352 698 290 672T183 600T111 492T84 357Q84 284 110 222T183 114T290 43T421 17Z" />
<glyph unicode="&#xaa;" glyph-name="ordfeminine" horiz-adv-x="418" d="M179 310Q118 310 80 338T42 422Q42 457 56 480T96 518T154 537T225 543H320V580Q320 640 295 667T212 694Q165 694 133 673T93 606H60Q68 666 112 694T214 722Q280 722 316 687T353 580V315H320V382Q303
353 268 332T179 310ZM183 337Q211 337 236 345T279 367T309 399T320 440V517H225Q193 517 166 513T119 499T87 470T75 423Q75 381 102 359T183 337Z" />
<glyph unicode="&#xab;" glyph-name="guillemotleft" horiz-adv-x="415" d="M52 261L189 439H225L89 261L225 83H189L52 261ZM197 261L334 439H370L234 261L370 83H334L197 261Z" />
<glyph unicode="&#xae;" glyph-name="registered" horiz-adv-x="514" d="M184 626H257Q295 626 318 610T341 560V559Q341 530 324 515T281 496L354 389H323L251 493H211V389H184V626ZM258 515Q313 515 313 558V559Q313 583 300 593T258 603H211V515H258ZM257 282Q211
282 171 299T100 345T53 415T35 502Q35 548 52 588T99 659T169 706T257 724Q304 724 344 707T415 660T462 590T479 503Q479 456 462 416T414 346T344 299T257 282ZM257 304Q299 304 335 319T397 360T439 423T454 503Q454 545 439 581T398 645T336 687T257 702Q215
702 179 687T117 644T75 581T60 502Q60 459 75 423T117 361T180 319T257 304Z" />
<glyph unicode="&#xaf;" glyph-name="macron" horiz-adv-x="400" d="M85 675H315V647H85V675Z" />
<glyph unicode="&#xb0;" glyph-name="degree" horiz-adv-x="395" d="M198 467Q222 467 243 476T279 500T302 537T311 581Q311 605 303 626T279 663T243 688T198 698Q173 698 152 689T116 664T92 627T83 581Q83 558 91 537T115 501T152 476T198 467ZM198 441Q168
441 141 452T95 482T64 526T52 581Q52 611 63 637T94 682T141 713T198 724Q228 724 254 713T300 683T331 637T343 581Q343 552 332 527T301 482T255 452T198 441Z" />
<glyph unicode="&#xb1;" glyph-name="plusminus" horiz-adv-x="505" d="M237 332H37V362H237V572H268V362H468V332H268V123H237V332ZM37 30H468V0H37V30Z" />
<glyph unicode="&#xb2;" glyph-name="twosuperior" horiz-adv-x="288" d="M20 379L150 507Q186 542 202 567T219 622Q219 657 198 675T142 694Q104 694 83 672T57 609H29Q33 661 63 689T143 718Q191 718 220 692T249 623Q249 587 231 559T173 493L71 396H252V371H20V379Z" />
<glyph unicode="&#xb3;" glyph-name="threesuperior" horiz-adv-x="307" d="M154 367Q96 367 63 397T26 469H55Q59 438 83 415T153 392Q195 392 217 412T240 467Q240 499 219 519T159 539H132V563H157Q194 563 212 582T230 628Q230 658 209 676T153 695Q112 695
92 674T67 622H39Q42 662 71 690T153 718Q201 718 230 693T259 629Q259 599 243 580T199 552Q229 546 250 524T271 467Q271 419 239 393T154 367Z" />
<glyph unicode="&#xb4;" glyph-name="acute" horiz-adv-x="400" d="M255 747H296L212 600H184L255 747Z" />
<glyph unicode="&#xb6;" glyph-name="paragraph" horiz-adv-x="542" d="M269 357H255Q208 357 170 368T103 400T60 455T44 532Q44 578 60 612T104 670T171 704T255 715H447V-100H416V689H299V-100H269V357Z" />
<glyph unicode="&#xb7;" glyph-name="periodcentered" horiz-adv-x="195" d="M98 293Q85 293 77 301T69 322Q69 334 77 342T98 351Q110 351 118 343T126 322Q126 310 118 302T98 293Z" />
<glyph unicode="&#xb8;" glyph-name="cedilla" horiz-adv-x="400" d="M211 -211Q173 -211 148 -191T119 -136H151Q154 -157 169 -170T210 -183Q236 -183 251 -170T266 -134Q266 -108 250 -99T214 -89Q200 -89 190 -93T175 -99L155 -81L201 0H233L195 -67Q214 -61
232 -62T266 -72T290 -96T299 -135Q299 -172 274 -191T211 -211Z" />
<glyph unicode="&#xb9;" glyph-name="onesuperior" horiz-adv-x="208" d="M111 680L20 615V644L119 715H142V371H111V680Z" />
<glyph unicode="&#xba;" glyph-name="ordmasculine" horiz-adv-x="464" d="M232 338Q265 338 294 350T344 384T377 439T390 513V519Q390 560 378 592T344 647T295 681T233 693Q200 693 172 681T121 646T87 591T74 518V512Q74 472 86 440T120 386T170 351T232 338ZM231
310Q191 310 157 324T96 366T55 430T40 512V518Q40 564 55 602T97 666T158 706T233 721Q273 721 307 707T368 667T409 604T424 519V513Q424 466 409 429T368 365T306 324T231 310Z" />
<glyph unicode="&#xbb;" glyph-name="guillemotright" horiz-adv-x="415" d="M181 261L45 439H81L219 261L81 83H45L181 261ZM326 261L190 439H226L364 261L226 83H190L326 261Z" />
<glyph unicode="&#xbc;" glyph-name="onequarter" horiz-adv-x="650" d="M114 680L23 615V644L122 715H145V371H114V680ZM566 715H597L75 0H44L566 715ZM543 78H361V89L532 345H573V102H620V78H573V1H543V78ZM543 102V323L398 102H543Z" />
<glyph unicode="&#xbd;" glyph-name="onehalf" horiz-adv-x="658" d="M116 680L25 615V644L124 715H147V371H116V680ZM546 715H577L55 0H24L546 715ZM386 9L516 137Q552 172 568 197T585 252Q585 287 564 305T508 324Q470 324 449 302T423 239H395Q399 291 429
319T509 348Q557 348 586 322T615 253Q615 217 597 189T539 123L437 26H618V1H386V9Z" />
<glyph unicode="&#xbe;" glyph-name="threequarters" horiz-adv-x="671" d="M157 367Q99 367 66 397T29 469H58Q62 438 86 415T156 392Q198 392 220 412T243 467Q243 499 222 519T162 539H135V563H160Q197 563 215 582T233 628Q233 658 212 676T156 695Q115 695
95 674T70 622H42Q45 662 74 690T156 718Q204 718 233 693T262 629Q262 599 246 580T202 552Q232 546 253 524T274 467Q274 419 242 393T157 367ZM609 715H640L118 0H87L609 715ZM558 78H376V89L547 345H588V102H635V78H588V1H558V78ZM558 102V323L413 102H558Z"
/>
<glyph unicode="&#xbf;" glyph-name="questiondown" horiz-adv-x="469" d="M276 372Q276 342 269 319T248 276T217 236T177 194Q158 175 141 158T112 122T92 82T84 33Q84 -23 119 -58T229 -94Q301 -94 346 -51T397 68H431Q428 24 413 -11T370 -72T307 -110T228
-124Q183 -124 150 -112T94 -79T60 -29T49 33Q49 65 57 89T79 133T113 172T153 213Q174 234 190 252T219 288T237 327T244 374V434H276V372ZM260 603Q272 603 280 595T289 574Q289 563 281 555T260 546Q248 546 240 554T231 574Q231 586 239 594T260 603Z" />
<glyph unicode="&#xc0;" glyph-name="Agrave" horiz-adv-x="641" d="M296 715H344L610 0H574L489 228H150L66 0H32L296 715ZM161 258H478L319 686L161 258ZM224 891H266L334 771H305L224 891Z" />
<glyph unicode="&#xc1;" glyph-name="Aacute" horiz-adv-x="641" d="M296 715H344L610 0H574L489 228H150L66 0H32L296 715ZM161 258H478L319 686L161 258ZM362 891H403L322 771H293L362 891Z" />
<glyph unicode="&#xc2;" glyph-name="Acircumflex" horiz-adv-x="641" d="M296 715H344L610 0H574L489 228H150L66 0H32L296 715ZM161 258H478L319 686L161 258ZM298 891H332L442 771H412L315 861L216 771H186L298 891Z" />
<glyph unicode="&#xc3;" glyph-name="Atilde" horiz-adv-x="641" d="M296 715H344L610 0H574L489 228H150L66 0H32L296 715ZM161 258H478L319 686L161 258ZM381 773Q362 773 345 782T311 803T279 823T249 833Q229 833 216 818T198 774H171Q176 819 197 841T249
863Q267 863 284 854T318 833T350 813T381 803Q400 803 413 818T431 862H458Q453 817 432 795T381 773Z" />
<glyph unicode="&#xc4;" glyph-name="Adieresis" horiz-adv-x="641" d="M296 715H344L610 0H574L489 228H150L66 0H32L296 715ZM161 258H478L319 686L161 258ZM231 788Q220 788 213 795T205 814Q205 825 212 832T231 840Q242 840 249 833T257 814Q257 803 250
796T231 788ZM397 788Q386 788 379 795T371 814Q371 825 378 832T397 840Q408 840 415 833T423 814Q423 803 416 796T397 788Z" />
<glyph unicode="&#xc5;" glyph-name="Aring" horiz-adv-x="641" d="M296 715H344L610 0H574L489 228H150L66 0H32L296 715ZM161 258H478L319 686L161 258ZM314 774Q343 774 362 793T381 841Q381 870 362 889T314 909Q287 909 268 890T248 841Q248 813 267 794T314
774ZM314 752Q295 752 279 759T250 778T230 807T222 841Q222 879 249 905T314 932Q333 932 350 925T380 906T400 877T407 841Q407 823 400 807T380 779T350 759T314 752Z" />
<glyph unicode="&#xc6;" glyph-name="AE" horiz-adv-x="943" d="M387 715H878V685H507V384H808V353H507V31H896V0H471V228H180L66 0H28L387 715ZM195 258H471V685H408L195 258Z" />
<glyph unicode="&#xc7;" glyph-name="Ccedilla" horiz-adv-x="723" d="M366 -211Q328 -211 303 -191T274 -136H306Q309 -157 324 -170T365 -183Q391 -183 406 -170T421 -134Q421 -108 405 -99T369 -89Q355 -89 345 -93T330 -99L310 -81L352 -6Q283 -1 228 27T133
103T72 213T51 353V361Q51 440 77 506T148 621T253 695T382 722Q437 722 485 708T571 667T634 599T669 506H633Q614 595 550 643T382 692Q319 692 265 668T172 600T111 496T88 362V354Q88 279 109 219T168 115T260 48T383 24Q486 24 555 77T645 225H678Q668 170
642 127T578 55T490 9T384 -7L350 -67Q369 -61 387 -62T421 -72T445 -96T454 -135Q454 -172 429 -191T366 -211Z" />
<glyph unicode="&#xc8;" glyph-name="Egrave" horiz-adv-x="566" d="M94 715H500V685H130V384H431V353H130V31H518V0H94V715ZM205 891H247L315 771H286L205 891Z" />
<glyph unicode="&#xc9;" glyph-name="Eacute" horiz-adv-x="566" d="M94 715H500V685H130V384H431V353H130V31H518V0H94V715ZM343 891H384L303 771H274L343 891Z" />
<glyph unicode="&#xca;" glyph-name="Ecircumflex" horiz-adv-x="566" d="M94 715H500V685H130V384H431V353H130V31H518V0H94V715ZM279 891H313L423 771H393L296 861L197 771H167L279 891Z" />
<glyph unicode="&#xcb;" glyph-name="Edieresis" horiz-adv-x="566" d="M94 715H500V685H130V384H431V353H130V31H518V0H94V715ZM212 788Q201 788 194 795T186 814Q186 825 193 832T212 840Q223 840 230 833T238 814Q238 803 231 796T212 788ZM378 788Q367 788
360 795T352 814Q352 825 359 832T378 840Q389 840 396 833T404 814Q404 803 397 796T378 788Z" />
<glyph unicode="&#xcc;" glyph-name="Igrave" horiz-adv-x="234" d="M99 715H135V0H99V715ZM284 891H326L394 771H365L284 891Z" />
<glyph unicode="&#xcd;" glyph-name="Iacute" horiz-adv-x="234" d="M99 715H135V0H99V715ZM422 891H463L382 771H353L422 891Z" />
<glyph unicode="&#xce;" glyph-name="Icircumflex" horiz-adv-x="234" d="M99 715H135V0H99V715ZM358 891H392L502 771H472L375 861L276 771H246L358 891Z" />
<glyph unicode="&#xcf;" glyph-name="Idieresis" horiz-adv-x="234" d="M99 715H135V0H99V715ZM291 788Q280 788 273 795T265 814Q265 825 272 832T291 840Q302 840 309 833T317 814Q317 803 310 796T291 788ZM457 788Q446 788 439 795T431 814Q431 825 438 832T457
840Q468 840 475 833T483 814Q483 803 476 796T457 788Z" />
<glyph unicode="&#xd0;" glyph-name="Eth" horiz-adv-x="685" d="M24 375H99V715H282Q369 715 434 688T544 614T611 503T634 364V356Q634 282 613 217T548 104T437 28T280 0H99V345H24V375ZM278 31Q359 31 418 55T518 123T577 226T597 356V364Q597 432 578 491T520
593T420 660T277 685H135V375H344V345H135V31H278Z" />
<glyph unicode="&#xd1;" glyph-name="Ntilde" horiz-adv-x="707" d="M94 715H145L578 48V715H613V0H569L129 678V0H94V715ZM431 773Q412 773 395 782T361 803T329 823T299 833Q279 833 266 818T248 774H221Q226 819 247 841T299 863Q317 863 334 854T368 833T400
813T431 803Q450 803 463 818T481 862H508Q503 817 482 795T431 773Z" />
<glyph unicode="&#xd2;" glyph-name="Ograve" horiz-adv-x="795" d="M400 24Q467 24 523 49T620 119T684 224T707 356V364Q707 433 684 492T620 596T523 666T398 692Q330 692 273 667T175 597T111 492T88 361V353Q88 283 111 223T177 119T276 49T400 24ZM400 -7Q325
-7 261 21T151 98T78 212T51 353V361Q51 437 77 503T151 617T261 694T398 722Q472 722 535 695T644 619T717 505T744 364V356Q744 280 718 214T645 99T536 22T400 -7ZM307 891H349L417 771H388L307 891Z" />
<glyph unicode="&#xd3;" glyph-name="Oacute" horiz-adv-x="795" d="M400 24Q467 24 523 49T620 119T684 224T707 356V364Q707 433 684 492T620 596T523 666T398 692Q330 692 273 667T175 597T111 492T88 361V353Q88 283 111 223T177 119T276 49T400 24ZM400 -7Q325
-7 261 21T151 98T78 212T51 353V361Q51 437 77 503T151 617T261 694T398 722Q472 722 535 695T644 619T717 505T744 364V356Q744 280 718 214T645 99T536 22T400 -7ZM445 891H486L405 771H376L445 891Z" />
<glyph unicode="&#xd4;" glyph-name="Ocircumflex" horiz-adv-x="795" d="M400 24Q467 24 523 49T620 119T684 224T707 356V364Q707 433 684 492T620 596T523 666T398 692Q330 692 273 667T175 597T111 492T88 361V353Q88 283 111 223T177 119T276 49T400 24ZM400
-7Q325 -7 261 21T151 98T78 212T51 353V361Q51 437 77 503T151 617T261 694T398 722Q472 722 535 695T644 619T717 505T744 364V356Q744 280 718 214T645 99T536 22T400 -7ZM381 891H415L525 771H495L398 861L299 771H269L381 891Z" />
<glyph unicode="&#xd5;" glyph-name="Otilde" horiz-adv-x="795" d="M400 24Q467 24 523 49T620 119T684 224T707 356V364Q707 433 684 492T620 596T523 666T398 692Q330 692 273 667T175 597T111 492T88 361V353Q88 283 111 223T177 119T276 49T400 24ZM400 -7Q325
-7 261 21T151 98T78 212T51 353V361Q51 437 77 503T151 617T261 694T398 722Q472 722 535 695T644 619T717 505T744 364V356Q744 280 718 214T645 99T536 22T400 -7ZM464 773Q445 773 428 782T394 803T362 823T332 833Q312 833 299 818T281 774H254Q259 819 280
841T332 863Q350 863 367 854T401 833T433 813T464 803Q483 803 496 818T514 862H541Q536 817 515 795T464 773Z" />
<glyph unicode="&#xd6;" glyph-name="Odieresis" horiz-adv-x="795" d="M400 24Q467 24 523 49T620 119T684 224T707 356V364Q707 433 684 492T620 596T523 666T398 692Q330 692 273 667T175 597T111 492T88 361V353Q88 283 111 223T177 119T276 49T400 24ZM400
-7Q325 -7 261 21T151 98T78 212T51 353V361Q51 437 77 503T151 617T261 694T398 722Q472 722 535 695T644 619T717 505T744 364V356Q744 280 718 214T645 99T536 22T400 -7ZM314 788Q303 788 296 795T288 814Q288 825 295 832T314 840Q325 840 332 833T340 814Q340
803 333 796T314 788ZM480 788Q469 788 462 795T454 814Q454 825 461 832T480 840Q491 840 498 833T506 814Q506 803 499 796T480 788Z" />
<glyph unicode="&#xd7;" glyph-name="multiply" horiz-adv-x="492" d="M53 171L219 335L53 501L74 522L239 357L404 522L425 501L260 335L425 171L404 150L239 315L74 150L53 171Z" />
<glyph unicode="&#xd8;" glyph-name="Oslash" horiz-adv-x="795" d="M45 2L141 108Q98 156 75 218T51 353V361Q51 437 77 503T151 617T261 694T398 722Q463 722 519 700T621 640L709 738L731 716L644 619Q691 571 717 506T744 364V356Q744 280 718 214T645 99T536
22T400 -7Q329 -7 269 17T162 86L67 -20L45 2ZM400 24Q467 24 523 49T620 119T684 224T707 356V364Q707 433 685 492T622 596L184 110Q226 69 280 47T400 24ZM88 353Q88 287 108 232T163 133L600 617Q560 652 509 672T398 692Q330 692 273 667T175 597T111 492T88
361V353Z" />
<glyph unicode="&#xd9;" glyph-name="Ugrave" horiz-adv-x="674" d="M336 -5Q217 -5 149 60T80 253V715H116V256Q116 140 173 83T336 26Q451 26 504 85T557 269V715H593V264Q593 137 530 66T336 -5ZM247 891H289L357 771H328L247 891Z" />
<glyph unicode="&#xda;" glyph-name="Uacute" horiz-adv-x="674" d="M336 -5Q217 -5 149 60T80 253V715H116V256Q116 140 173 83T336 26Q451 26 504 85T557 269V715H593V264Q593 137 530 66T336 -5ZM384 891H425L344 771H315L384 891Z" />
<glyph unicode="&#xdb;" glyph-name="Ucircumflex" horiz-adv-x="674" d="M336 -5Q217 -5 149 60T80 253V715H116V256Q116 140 173 83T336 26Q451 26 504 85T557 269V715H593V264Q593 137 530 66T336 -5ZM320 891H354L464 771H434L337 861L238 771H208L320 891Z" />
<glyph unicode="&#xdc;" glyph-name="Udieresis" horiz-adv-x="674" d="M336 -5Q217 -5 149 60T80 253V715H116V256Q116 140 173 83T336 26Q451 26 504 85T557 269V715H593V264Q593 137 530 66T336 -5ZM253 788Q242 788 235 795T227 814Q227 825 234 832T253 840Q264
840 271 833T279 814Q279 803 272 796T253 788ZM419 788Q408 788 401 795T393 814Q393 825 400 832T419 840Q430 840 437 833T445 814Q445 803 438 796T419 788Z" />
<glyph unicode="&#xdd;" glyph-name="Yacute" horiz-adv-x="565" d="M272 322L22 715H63L291 353L506 715H543L308 322V0H272V322ZM335 891H376L295 771H266L335 891Z" />
<glyph unicode="&#xde;" glyph-name="Thorn" horiz-adv-x="559" d="M94 715H129V565H274Q326 565 370 555T446 523T495 464T513 374V370Q513 317 496 280T446 220T370 187T274 177H129V0H94V715ZM275 207Q321 207 358 215T422 243T463 293T477 370V374Q477 420
463 451T421 500T357 526T275 534H129V207H275Z" />
<glyph unicode="&#xdf;" glyph-name="germandbls" horiz-adv-x="557" d="M311 -5Q280 -5 257 -1T215 11V41Q236 33 258 29T310 24Q343 24 374 33T429 63T467 120T482 206V213Q482 260 464 300T416 369T343 414T253 430V460Q295 460 326 472T378 506T409 554T419
609V613Q419 673 382 710T273 747Q198 747 157 701T115 576V0H81V575Q81 621 95 658T135 722T196 762T274 776Q316 776 349 764T406 730T441 678T453 613V609Q453 551 417 507T319 447Q357 440 393 421T456 371T500 301T517 214V207Q517 147 499 107T452 42T386
6T311 -5Z" />
<glyph unicode="&#xe0;" glyph-name="agrave" horiz-adv-x="521" d="M225 -8Q144 -8 95 29T46 139Q46 184 65 214T116 263T191 288T281 296H411V347Q411 428 376 464T265 501Q202 501 158 473T103 380H69Q74 419 92 447T136 494T196 522T266 531Q354 531 399 486T445
347V0H411V89Q388 50 342 21T225 -8ZM227 21Q264 21 297 32T356 61T396 105T411 160V268H281Q239 268 203 263T139 243T96 204T80 139Q80 82 117 52T227 21ZM173 747H214L286 600H257L173 747Z" />
<glyph unicode="&#xe1;" glyph-name="aacute" horiz-adv-x="521" d="M225 -8Q144 -8 95 29T46 139Q46 184 65 214T116 263T191 288T281 296H411V347Q411 428 376 464T265 501Q202 501 158 473T103 380H69Q74 419 92 447T136 494T196 522T266 531Q354 531 399 486T445
347V0H411V89Q388 50 342 21T225 -8ZM227 21Q264 21 297 32T356 61T396 105T411 160V268H281Q239 268 203 263T139 243T96 204T80 139Q80 82 117 52T227 21ZM315 747H356L272 600H244L315 747Z" />
<glyph unicode="&#xe2;" glyph-name="acircumflex" horiz-adv-x="521" d="M225 -8Q144 -8 95 29T46 139Q46 184 65 214T116 263T191 288T281 296H411V347Q411 428 376 464T265 501Q202 501 158 473T103 380H69Q74 419 92 447T136 494T196 522T266 531Q354 531
399 486T445 347V0H411V89Q388 50 342 21T225 -8ZM227 21Q264 21 297 32T356 61T396 105T411 160V268H281Q239 268 203 263T139 243T96 204T80 139Q80 82 117 52T227 21ZM247 729H281L390 600H360L264 700L166 600H136L247 729Z" />
<glyph unicode="&#xe3;" glyph-name="atilde" horiz-adv-x="521" d="M225 -8Q144 -8 95 29T46 139Q46 184 65 214T116 263T191 288T281 296H411V347Q411 428 376 464T265 501Q202 501 158 473T103 380H69Q74 419 92 447T136 494T196 522T266 531Q354 531 399 486T445
347V0H411V89Q388 50 342 21T225 -8ZM227 21Q264 21 297 32T356 61T396 105T411 160V268H281Q239 268 203 263T139 243T96 204T80 139Q80 82 117 52T227 21ZM333 615Q314 615 296 624T262 644T230 664T200 673Q183 673 169 659T150 615H123Q128 660 149 681T201
703Q219 703 236 694T270 674T303 653T334 644Q351 644 365 659T383 703H410Q405 658 384 637T333 615Z" />
<glyph unicode="&#xe4;" glyph-name="adieresis" horiz-adv-x="521" d="M225 -8Q144 -8 95 29T46 139Q46 184 65 214T116 263T191 288T281 296H411V347Q411 428 376 464T265 501Q202 501 158 473T103 380H69Q74 419 92 447T136 494T196 522T266 531Q354 531 399
486T445 347V0H411V89Q388 50 342 21T225 -8ZM227 21Q264 21 297 32T356 61T396 105T411 160V268H281Q239 268 203 263T139 243T96 204T80 139Q80 82 117 52T227 21ZM189 638Q178 638 171 645T163 664Q163 675 170 682T189 690Q200 690 207 683T215 664Q215 653
208 646T189 638ZM343 638Q332 638 325 645T317 664Q317 675 324 682T343 690Q354 690 361 683T369 664Q369 653 362 646T343 638Z" />
<glyph unicode="&#xe5;" glyph-name="aring" horiz-adv-x="521" d="M225 -8Q144 -8 95 29T46 139Q46 184 65 214T116 263T191 288T281 296H411V347Q411 428 376 464T265 501Q202 501 158 473T103 380H69Q74 419 92 447T136 494T196 522T266 531Q354 531 399 486T445
347V0H411V89Q388 50 342 21T225 -8ZM227 21Q264 21 297 32T356 61T396 105T411 160V268H281Q239 268 203 263T139 243T96 204T80 139Q80 82 117 52T227 21ZM266 625Q295 625 314 644T333 692Q333 721 314 740T266 760Q239 760 220 741T200 692Q200 664 219 645T266
625ZM266 603Q247 603 231 610T202 629T182 658T174 692Q174 730 201 756T266 783Q285 783 302 776T332 757T352 728T359 692Q359 674 352 658T332 630T302 610T266 603Z" />
<glyph unicode="&#xe6;" glyph-name="ae" horiz-adv-x="909" d="M652 -8Q569 -8 515 32T435 141Q426 105 406 77T358 30T296 2T226 -8Q145 -8 96 29T46 138Q46 183 64 213T115 260T189 285T278 292H414V346Q414 427 378 464T266 501Q203 501 159 473T103 380H69Q74
419 92 447T137 494T197 522T267 531Q342 531 386 497T441 394Q468 458 521 494T645 531Q693 531 733 515T804 467T850 388T867 279V264H448Q449 149 500 86T652 22Q720 22 766 52T829 144H863Q845 71 789 32T652 -8ZM228 21Q265 21 299 32T358 64T399 114T414
180V264H279Q237 264 201 259T138 240T96 202T80 138Q80 80 118 51T228 21ZM832 292Q830 396 779 448T645 501Q604 501 569 486T508 444T467 379T448 292H832Z" />
<glyph unicode="&#xe7;" glyph-name="ccedilla" horiz-adv-x="547" d="M267 -211Q229 -211 204 -191T175 -136H207Q210 -157 225 -170T266 -183Q292 -183 307 -170T322 -134Q322 -108 306 -99T270 -89Q256 -89 246 -93T231 -99L211 -81L254 -5Q209 1 170 22T103
77T58 157T42 257V265Q42 325 61 374T114 458T193 512T289 531Q328 531 364 520T429 487T477 434T502 362H468Q463 396 447 422T407 465T353 492T289 501Q245 501 207 485T139 438T94 364T77 265V257Q77 203 93 160T138 86T205 39T288 22Q324 22 355 32T411 62T453
110T476 177H508Q502 135 483 101T435 43T369 5T288 -8H284L251 -67Q270 -61 288 -62T322 -72T346 -96T355 -135Q355 -172 330 -191T267 -211Z" />
<glyph unicode="&#xe8;" glyph-name="egrave" horiz-adv-x="545" d="M286 -8Q229 -8 184 11T107 66T59 150T42 257V265Q42 323 60 372T109 456T184 511T279 531Q327 531 368 515T439 467T486 388T503 279V264H77Q78 149 131 86T286 22Q354 22 401 52T465 144H499Q481
71 424 32T286 -8ZM469 293Q466 397 415 449T279 501Q237 501 202 486T140 444T97 379T78 293H469ZM184 747H225L297 600H268L184 747Z" />
<glyph unicode="&#xe9;" glyph-name="eacute" horiz-adv-x="545" d="M286 -8Q229 -8 184 11T107 66T59 150T42 257V265Q42 323 60 372T109 456T184 511T279 531Q327 531 368 515T439 467T486 388T503 279V264H77Q78 149 131 86T286 22Q354 22 401 52T465 144H499Q481
71 424 32T286 -8ZM469 293Q466 397 415 449T279 501Q237 501 202 486T140 444T97 379T78 293H469ZM326 747H367L283 600H255L326 747Z" />
<glyph unicode="&#xea;" glyph-name="ecircumflex" horiz-adv-x="545" d="M286 -8Q229 -8 184 11T107 66T59 150T42 257V265Q42 323 60 372T109 456T184 511T279 531Q327 531 368 515T439 467T486 388T503 279V264H77Q78 149 131 86T286 22Q354 22 401 52T465
144H499Q481 71 424 32T286 -8ZM469 293Q466 397 415 449T279 501Q237 501 202 486T140 444T97 379T78 293H469ZM262 729H296L405 600H375L279 700L181 600H151L262 729Z" />
<glyph unicode="&#xeb;" glyph-name="edieresis" horiz-adv-x="545" d="M286 -8Q229 -8 184 11T107 66T59 150T42 257V265Q42 323 60 372T109 456T184 511T279 531Q327 531 368 515T439 467T486 388T503 279V264H77Q78 149 131 86T286 22Q354 22 401 52T465 144H499Q481
71 424 32T286 -8ZM469 293Q466 397 415 449T279 501Q237 501 202 486T140 444T97 379T78 293H469ZM201 638Q190 638 183 645T175 664Q175 675 182 682T201 690Q212 690 219 683T227 664Q227 653 220 646T201 638ZM355 638Q344 638 337 645T329 664Q329 675 336
682T355 690Q366 690 373 683T381 664Q381 653 374 646T355 638Z" />
<glyph unicode="&#xec;" glyph-name="igrave" horiz-adv-x="200" d="M83 523H117V0H83V523ZM259 747H300L372 600H343L259 747Z" />
<glyph unicode="&#xed;" glyph-name="iacute" horiz-adv-x="200" d="M83 523H117V0H83V523ZM411 747H452L368 600H340L411 747Z" />
<glyph unicode="&#xee;" glyph-name="icircumflex" horiz-adv-x="200" d="M83 523H117V0H83V523ZM341 729H375L484 600H454L358 700L260 600H230L341 729Z" />
<glyph unicode="&#xef;" glyph-name="idieresis" horiz-adv-x="200" d="M36 638Q25 638 18 645T10 664Q10 675 17 682T36 690Q47 690 54 683T62 664Q62 653 55 646T36 638ZM165 638Q154 638 147 645T139 664Q139 675 146 682T165 690Q176 690 183 683T191 664Q191
653 184 646T165 638ZM83 523H117V0H83V523Z" />
<glyph unicode="&#xf0;" glyph-name="eth" horiz-adv-x="588" d="M130 612L264 690Q235 712 204 732T141 773H190Q213 760 239 744T293 706L401 769L416 745L316 688Q358 653 398 610T470 515T521 403T541 275V258Q541 199 521 150T467 66T388 12T291 -8Q240 -8
195 11T115 66T62 150T42 257V265Q42 324 62 373T115 457T191 511T281 531Q356 531 403 502T481 427Q450 498 401 558T288 671L144 589L130 612ZM291 22Q335 22 374 38T442 85T489 160T506 259V276Q506 327 489 368T443 439T373 485T287 501Q245 501 207 485T140
438T94 364T77 265V257Q77 203 94 160T140 86T208 39T291 22Z" />
<glyph unicode="&#xf1;" glyph-name="ntilde" horiz-adv-x="573" d="M81 523H115V409Q124 433 142 455T185 494T242 521T310 531Q395 531 446 482T497 323V0H463V324Q463 417 422 459T305 501Q270 501 236 489T175 454T132 397T115 317V0H81V523ZM352 615Q333
615 315 624T281 644T249 664T219 673Q202 673 188 659T169 615H142Q147 660 168 681T220 703Q238 703 255 694T289 674T322 653T353 644Q370 644 384 659T402 703H429Q424 658 403 637T352 615Z" />
<glyph unicode="&#xf2;" glyph-name="ograve" horiz-adv-x="583" d="M292 22Q336 22 375 38T443 85T489 159T506 258V266Q506 321 489 365T443 439T375 485T293 501Q249 501 210 485T142 438T95 364T77 265V257Q77 203 94 160T140 86T208 39T292 22ZM291 -8Q240
-8 195 11T115 66T62 150T42 257V265Q42 324 62 372T116 456T196 510T293 530Q344 530 389 511T468 458T521 375T541 266V258Q541 199 521 150T467 66T388 12T291 -8ZM198 747H239L311 600H282L198 747Z" />
<glyph unicode="&#xf3;" glyph-name="oacute" horiz-adv-x="583" d="M292 22Q336 22 375 38T443 85T489 159T506 258V266Q506 321 489 365T443 439T375 485T293 501Q249 501 210 485T142 438T95 364T77 265V257Q77 203 94 160T140 86T208 39T292 22ZM291 -8Q240
-8 195 11T115 66T62 150T42 257V265Q42 324 62 372T116 456T196 510T293 530Q344 530 389 511T468 458T521 375T541 266V258Q541 199 521 150T467 66T388 12T291 -8ZM340 747H381L297 600H269L340 747Z" />
<glyph unicode="&#xf4;" glyph-name="ocircumflex" horiz-adv-x="583" d="M292 22Q336 22 375 38T443 85T489 159T506 258V266Q506 321 489 365T443 439T375 485T293 501Q249 501 210 485T142 438T95 364T77 265V257Q77 203 94 160T140 86T208 39T292 22ZM291
-8Q240 -8 195 11T115 66T62 150T42 257V265Q42 324 62 372T116 456T196 510T293 530Q344 530 389 511T468 458T521 375T541 266V258Q541 199 521 150T467 66T388 12T291 -8ZM275 729H309L418 600H388L292 700L194 600H164L275 729Z" />
<glyph unicode="&#xf5;" glyph-name="otilde" horiz-adv-x="583" d="M292 22Q336 22 375 38T443 85T489 159T506 258V266Q506 321 489 365T443 439T375 485T293 501Q249 501 210 485T142 438T95 364T77 265V257Q77 203 94 160T140 86T208 39T292 22ZM291 -8Q240
-8 195 11T115 66T62 150T42 257V265Q42 324 62 372T116 456T196 510T293 530Q344 530 389 511T468 458T521 375T541 266V258Q541 199 521 150T467 66T388 12T291 -8ZM358 615Q339 615 321 624T287 644T255 664T225 673Q208 673 194 659T175 615H148Q153 660 174
681T226 703Q244 703 261 694T295 674T328 653T359 644Q376 644 390 659T408 703H435Q430 658 409 637T358 615Z" />
<glyph unicode="&#xf6;" glyph-name="odieresis" horiz-adv-x="583" d="M292 22Q336 22 375 38T443 85T489 159T506 258V266Q506 321 489 365T443 439T375 485T293 501Q249 501 210 485T142 438T95 364T77 265V257Q77 203 94 160T140 86T208 39T292 22ZM291 -8Q240
-8 195 11T115 66T62 150T42 257V265Q42 324 62 372T116 456T196 510T293 530Q344 530 389 511T468 458T521 375T541 266V258Q541 199 521 150T467 66T388 12T291 -8ZM214 638Q203 638 196 645T188 664Q188 675 195 682T214 690Q225 690 232 683T240 664Q240 653
233 646T214 638ZM368 638Q357 638 350 645T342 664Q342 675 349 682T368 690Q379 690 386 683T394 664Q394 653 387 646T368 638Z" />
<glyph unicode="&#xf7;" glyph-name="divide" horiz-adv-x="505" d="M252 143Q240 143 232 151T224 172Q224 184 232 192T252 201Q265 201 273 193T281 172Q281 160 273 152T252 143ZM37 357H468V327H37V357ZM252 484Q240 484 232 492T224 512Q224 524 232 532T252
541Q265 541 273 533T281 512Q281 501 273 493T252 484Z" />
<glyph unicode="&#xf8;" glyph-name="oslash" horiz-adv-x="583" d="M36 0L105 77Q76 112 59 157T42 257V265Q42 324 62 372T116 456T196 510T293 530Q340 530 381 515T455 470L518 540L540 521L476 449Q506 415 523 369T541 266V258Q541 199 521 150T467 66T388
12T291 -8Q243 -8 201 8T125 56L58 -19L36 0ZM292 22Q336 22 375 38T443 85T489 159T506 258V266Q506 316 492 356T454 425L146 80Q175 52 212 37T292 22ZM77 257Q77 209 90 170T127 101L434 446Q405 473 369 487T293 501Q249 501 210 485T142 438T95 364T77 265V257Z"
/>
<glyph unicode="&#xf9;" glyph-name="ugrave" horiz-adv-x="569" d="M262 -8Q220 -8 186 3T127 38T90 100T76 193V523H110V194Q110 102 152 63T267 23Q301 23 335 34T395 68T437 125T454 204V523H488V0H454V112Q445 88 428 66T386 28T330 2T262 -8ZM191 747H232L304
600H275L191 747Z" />
<glyph unicode="&#xfa;" glyph-name="uacute" horiz-adv-x="569" d="M262 -8Q220 -8 186 3T127 38T90 100T76 193V523H110V194Q110 102 152 63T267 23Q301 23 335 34T395 68T437 125T454 204V523H488V0H454V112Q445 88 428 66T386 28T330 2T262 -8ZM333 747H374L290
600H262L333 747Z" />
<glyph unicode="&#xfb;" glyph-name="ucircumflex" horiz-adv-x="569" d="M262 -8Q220 -8 186 3T127 38T90 100T76 193V523H110V194Q110 102 152 63T267 23Q301 23 335 34T395 68T437 125T454 204V523H488V0H454V112Q445 88 428 66T386 28T330 2T262 -8ZM269 729H303L412
600H382L286 700L188 600H158L269 729Z" />
<glyph unicode="&#xfc;" glyph-name="udieresis" horiz-adv-x="569" d="M262 -8Q220 -8 186 3T127 38T90 100T76 193V523H110V194Q110 102 152 63T267 23Q301 23 335 34T395 68T437 125T454 204V523H488V0H454V112Q445 88 428 66T386 28T330 2T262 -8ZM208 638Q197
638 190 645T182 664Q182 675 189 682T208 690Q219 690 226 683T234 664Q234 653 227 646T208 638ZM362 638Q351 638 344 645T336 664Q336 675 343 682T362 690Q373 690 380 683T388 664Q388 653 381 646T362 638Z" />
<glyph unicode="&#xfd;" glyph-name="yacute" horiz-adv-x="495" d="M234 40L26 523H62L252 79L433 523H469L177 -182H142L234 40ZM296 747H337L253 600H225L296 747Z" />
<glyph unicode="&#xfe;" glyph-name="thorn" horiz-adv-x="602" d="M81 773H115V379Q127 409 147 436T195 485T257 518T329 531Q377 531 419 513T493 460T542 376T560 266V258Q560 195 542 146T493 63T419 10T328 -8Q285 -8 250 5T189 39T144 86T115 140V-182H81V773ZM326
22Q369 22 405 38T468 84T510 157T525 257V265Q525 322 509 366T466 440T403 485T327 501Q286 501 248 486T181 440T133 366T115 265V257Q115 201 132 158T178 84T245 38T326 22Z" />
<glyph unicode="&#xff;" glyph-name="ydieresis" horiz-adv-x="495" d="M234 40L26 523H62L252 79L433 523H469L177 -182H142L234 40ZM174 638Q163 638 156 645T148 664Q148 675 155 682T174 690Q185 690 192 683T200 664Q200 653 193 646T174 638ZM328 638Q317
638 310 645T302 664Q302 675 309 682T328 690Q339 690 346 683T354 664Q354 653 347 646T328 638Z" />
<glyph unicode="&#x100;" glyph-name="Amacron" horiz-adv-x="641" d="M296 715H344L610 0H574L489 228H150L66 0H32L296 715ZM161 258H478L319 686L161 258ZM196 823H432V794H196V823Z" />
<glyph unicode="&#x101;" glyph-name="amacron" horiz-adv-x="521" d="M225 -8Q144 -8 95 29T46 139Q46 184 65 214T116 263T191 288T281 296H411V347Q411 428 376 464T265 501Q202 501 158 473T103 380H69Q74 419 92 447T136 494T196 522T266 531Q354 531 399
486T445 347V0H411V89Q388 50 342 21T225 -8ZM227 21Q264 21 297 32T356 61T396 105T411 160V268H281Q239 268 203 263T139 243T96 204T80 139Q80 82 117 52T227 21ZM151 675H381V647H151V675Z" />
<glyph unicode="&#x102;" glyph-name="Abreve" horiz-adv-x="641" d="M296 715H344L610 0H574L489 228H150L66 0H32L296 715ZM161 258H478L319 686L161 258ZM313 773Q263 773 229 806T190 890H220Q224 852 249 827T313 802Q350 802 376 827T408 890H437Q435 864
425 843T398 806T359 782T313 773Z" />
<glyph unicode="&#x103;" glyph-name="abreve" horiz-adv-x="521" d="M225 -8Q144 -8 95 29T46 139Q46 184 65 214T116 263T191 288T281 296H411V347Q411 428 376 464T265 501Q202 501 158 473T103 380H69Q74 419 92 447T136 494T196 522T266 531Q354 531 399
486T445 347V0H411V89Q388 50 342 21T225 -8ZM227 21Q264 21 297 32T356 61T396 105T411 160V268H281Q239 268 203 263T139 243T96 204T80 139Q80 82 117 52T227 21ZM265 614Q215 614 184 645T148 728H178Q182 690 204 667T265 643Q302 643 325 666T354 728H383Q380
677 347 646T265 614Z" />
<glyph unicode="&#x104;" glyph-name="Aogonek" horiz-adv-x="641" d="M579 -182Q537 -182 515 -162T492 -110Q492 -75 516 -46T574 3H572L488 228H150L66 0H32L296 715H344L609 1Q568 -25 547 -50T526 -106Q526 -127 539 -140T582 -154Q608 -154 631 -145V-172Q608
-182 579 -182ZM161 258H477L319 686L161 258Z" />
<glyph unicode="&#x105;" glyph-name="aogonek" horiz-adv-x="521" d="M417 -182Q375 -182 353 -162T330 -110Q330 -92 337 -76T355 -46T381 -19T412 4H411V89Q388 50 342 21T225 -8Q144 -8 95 29T46 139Q46 184 65 214T116 263T191 288T281 296H411V347Q411 428
376 464T265 501Q202 501 158 473T103 380H69Q74 419 92 447T136 494T196 522T266 531Q354 531 399 486T445 347V1Q406 -24 385 -50T363 -106Q363 -127 377 -141T420 -155Q445 -155 469 -146V-172Q446 -182 417 -182ZM227 21Q264 21 297 32T356 61T396 105T411
160V269H281Q239 269 203 264T139 244T96 204T80 139Q80 82 117 52T227 21Z" />
<glyph unicode="&#x106;" glyph-name="Cacute" horiz-adv-x="723" d="M382 -7Q307 -7 246 19T141 93T75 207T51 353V361Q51 440 77 506T148 621T253 695T382 722Q437 722 485 708T571 667T634 599T669 506H633Q614 595 550 643T382 692Q319 692 265 668T172 600T111
496T88 362V354Q88 279 109 219T168 115T260 48T383 24Q486 24 555 77T645 225H678Q668 170 642 127T577 54T489 9T382 -7ZM431 891H472L391 771H362L431 891Z" />
<glyph unicode="&#x107;" glyph-name="cacute" horiz-adv-x="547" d="M288 -8Q237 -8 192 11T114 65T61 149T42 257V265Q42 325 61 374T114 458T193 512T289 531Q328 531 364 520T429 487T477 434T502 362H468Q463 396 447 422T407 465T353 492T289 501Q245 501
207 485T139 438T94 364T77 265V257Q77 203 93 160T138 86T205 39T288 22Q324 22 355 32T411 62T453 110T476 177H508Q502 135 483 101T435 43T369 5T288 -8ZM333 747H374L290 600H262L333 747Z" />
<glyph unicode="&#x108;" glyph-name="Ccircumflex" horiz-adv-x="723" d="M382 -7Q307 -7 246 19T141 93T75 207T51 353V361Q51 440 77 506T148 621T253 695T382 722Q437 722 485 708T571 667T634 599T669 506H633Q614 595 550 643T382 692Q319 692 265 668T172
600T111 496T88 362V354Q88 279 109 219T168 115T260 48T383 24Q486 24 555 77T645 225H678Q668 170 642 127T577 54T489 9T382 -7ZM367 891H401L511 771H481L384 861L285 771H255L367 891Z" />
<glyph unicode="&#x109;" glyph-name="ccircumflex" horiz-adv-x="547" d="M288 -8Q237 -8 192 11T114 65T61 149T42 257V265Q42 325 61 374T114 458T193 512T289 531Q328 531 364 520T429 487T477 434T502 362H468Q463 396 447 422T407 465T353 492T289 501Q245
501 207 485T139 438T94 364T77 265V257Q77 203 93 160T138 86T205 39T288 22Q324 22 355 32T411 62T453 110T476 177H508Q502 135 483 101T435 43T369 5T288 -8ZM268 729H302L411 600H381L285 700L187 600H157L268 729Z" />
<glyph unicode="&#x10a;" glyph-name="Cdotaccent" horiz-adv-x="723" d="M382 -7Q307 -7 246 19T141 93T75 207T51 353V361Q51 440 77 506T148 621T253 695T382 722Q437 722 485 708T571 667T634 599T669 506H633Q614 595 550 643T382 692Q319 692 265 668T172
600T111 496T88 362V354Q88 279 109 219T168 115T260 48T383 24Q486 24 555 77T645 225H678Q668 170 642 127T577 54T489 9T382 -7ZM382 787Q371 787 364 795T356 814Q356 825 363 832T382 840Q393 840 401 833T409 814Q409 803 401 795T382 787Z" />
<glyph unicode="&#x10b;" glyph-name="cdotaccent" horiz-adv-x="547" d="M288 -8Q237 -8 192 11T114 65T61 149T42 257V265Q42 325 61 374T114 458T193 512T289 531Q328 531 364 520T429 487T477 434T502 362H468Q463 396 447 422T407 465T353 492T289 501Q245
501 207 485T139 438T94 364T77 265V257Q77 203 93 160T138 86T205 39T288 22Q324 22 355 32T411 62T453 110T476 177H508Q502 135 483 101T435 43T369 5T288 -8ZM284 637Q273 637 266 645T258 664Q258 675 265 682T284 690Q295 690 303 683T311 664Q311 653 303
645T284 637Z" />
<glyph unicode="&#x10c;" glyph-name="Ccaron" horiz-adv-x="723" d="M382 -7Q307 -7 246 19T141 93T75 207T51 353V361Q51 440 77 506T148 621T253 695T382 722Q437 722 485 708T571 667T634 599T669 506H633Q614 595 550 643T382 692Q319 692 265 668T172 600T111
496T88 362V354Q88 279 109 219T168 115T260 48T383 24Q486 24 555 77T645 225H678Q668 170 642 127T577 54T489 9T382 -7ZM254 891H284L383 800L483 891H512L399 771H365L254 891Z" />
<glyph unicode="&#x10d;" glyph-name="ccaron" horiz-adv-x="547" d="M288 -8Q237 -8 192 11T114 65T61 149T42 257V265Q42 325 61 374T114 458T193 512T289 531Q328 531 364 520T429 487T477 434T502 362H468Q463 396 447 422T407 465T353 492T289 501Q245 501
207 485T139 438T94 364T77 265V257Q77 203 93 160T138 86T205 39T288 22Q324 22 355 32T411 62T453 110T476 177H508Q502 135 483 101T435 43T369 5T288 -8ZM157 742H187L284 642L381 742H411L300 613H266L157 742Z" />
<glyph unicode="&#x10e;" glyph-name="Dcaron" horiz-adv-x="680" d="M273 31Q354 31 413 55T513 123T572 226T592 356V364Q592 432 573 491T515 593T415 660T272 685H130V31H273ZM94 715H277Q364 715 429 688T539 614T606 503T629 364V356Q629 282 608 217T543
104T432 28T275 0H94V715ZM184 891H214L313 800L413 891H442L329 771H295L184 891Z" />
<glyph unicode="&#x10f;" glyph-name="dcaron" horiz-adv-x="602" d="M277 -8Q228 -8 185 9T111 61T61 144T42 256V264Q42 325 61 374T113 458T190 512T285 531Q327 531 360 519T417 487T459 440T487 387V773H521V0H487V140Q478 114 460 88T415 40T354 6T277 -8ZM279
22Q321 22 359 38T425 84T471 157T488 257V265Q488 322 473 366T430 440T367 485T287 501Q243 501 205 485T139 439T94 365T77 265V257Q77 201 92 157T135 83T199 38T279 22ZM594 773H631L608 619H581L594 773Z" />
<glyph unicode="&#x110;" glyph-name="Dcroat" horiz-adv-x="685" d="M24 375H99V715H282Q369 715 434 688T544 614T611 503T634 364V356Q634 282 613 217T548 104T437 28T280 0H99V345H24V375ZM278 31Q359 31 418 55T518 123T577 226T597 356V364Q597 432 578
491T520 593T420 660T277 685H135V375H344V345H135V31H278Z" />
<glyph unicode="&#x111;" glyph-name="dcroat" horiz-adv-x="602" d="M292 656H487V773H521V656H601V629H521V0H487V140Q478 114 460 88T415 40T354 6T277 -8Q228 -8 185 9T111 61T61 144T42 256V264Q42 325 61 374T113 458T190 512T285 531Q327 531 360 519T417
487T459 440T487 387V629H292V656ZM279 22Q321 22 359 38T425 84T471 157T488 257V265Q488 322 473 366T430 440T367 485T287 501Q243 501 205 485T139 439T94 365T77 265V257Q77 201 92 157T135 83T199 38T279 22Z" />
<glyph unicode="&#x112;" glyph-name="Emacron" horiz-adv-x="566" d="M94 715H500V685H130V384H431V353H130V31H518V0H94V715ZM177 823H413V794H177V823Z" />
<glyph unicode="&#x113;" glyph-name="emacron" horiz-adv-x="545" d="M286 -8Q229 -8 184 11T107 66T59 150T42 257V265Q42 323 60 372T109 456T184 511T279 531Q327 531 368 515T439 467T486 388T503 279V264H77Q78 149 131 86T286 22Q354 22 401 52T465 144H499Q481
71 424 32T286 -8ZM469 293Q466 397 415 449T279 501Q237 501 202 486T140 444T97 379T78 293H469ZM163 675H393V647H163V675Z" />
<glyph unicode="&#x114;" glyph-name="Ebreve" horiz-adv-x="566" d="M94 715H500V685H130V384H431V353H130V31H518V0H94V715ZM296 773Q246 773 212 806T173 890H203Q207 852 232 827T296 802Q333 802 359 827T391 890H420Q418 864 408 843T381 806T342 782T296 773Z" />
<glyph unicode="&#x115;" glyph-name="ebreve" horiz-adv-x="545" d="M286 -8Q229 -8 184 11T107 66T59 150T42 257V265Q42 323 60 372T109 456T184 511T279 531Q327 531 368 515T439 467T486 388T503 279V264H77Q78 149 131 86T286 22Q354 22 401 52T465 144H499Q481
71 424 32T286 -8ZM469 293Q466 397 415 449T279 501Q237 501 202 486T140 444T97 379T78 293H469ZM275 614Q225 614 194 645T158 728H188Q192 690 214 667T275 643Q312 643 335 666T364 728H393Q390 677 357 646T275 614Z" />
<glyph unicode="&#x116;" glyph-name="Edotaccent" horiz-adv-x="566" d="M94 715H500V685H130V384H431V353H130V31H518V0H94V715ZM295 787Q284 787 277 795T269 814Q269 825 276 832T295 840Q306 840 314 833T322 814Q322 803 314 795T295 787Z" />
<glyph unicode="&#x117;" glyph-name="edotaccent" horiz-adv-x="545" d="M286 -8Q229 -8 184 11T107 66T59 150T42 257V265Q42 323 60 372T109 456T184 511T279 531Q327 531 368 515T439 467T486 388T503 279V264H77Q78 149 131 86T286 22Q354 22 401 52T465
144H499Q481 71 424 32T286 -8ZM469 293Q466 397 415 449T279 501Q237 501 202 486T140 444T97 379T78 293H469ZM278 637Q267 637 260 645T252 664Q252 675 259 682T278 690Q289 690 297 683T305 664Q305 653 297 645T278 637Z" />
<glyph unicode="&#x118;" glyph-name="Eogonek" horiz-adv-x="566" d="M426 -182Q384 -182 362 -162T339 -110Q339 -76 361 -48T416 0H94V715H500V685H130V384H431V353H130V31H518V0H454Q415 -26 394 -51T373 -106Q373 -127 386 -140T429 -154Q454 -154 478 -145V-172Q455
-182 426 -182Z" />
<glyph unicode="&#x119;" glyph-name="eogonek" horiz-adv-x="545" d="M366 -182Q324 -182 302 -162T279 -110Q279 -76 303 -47T361 4Q325 -8 286 -8Q229 -8 184 11T107 66T59 150T42 257V265Q42 323 60 372T109 456T184 511T279 531Q327 531 368 515T439 467T486
388T503 279V264H77Q78 149 131 86T286 22Q354 22 401 52T465 144H499Q488 101 468 75T426 31Q408 16 388 1T351 -30T323 -65T312 -106Q312 -127 326 -141T369 -155Q394 -155 418 -146V-172Q395 -182 366 -182ZM469 293Q466 397 415 449T279 501Q237 501 202 486T140
444T97 379T78 293H469Z" />
<glyph unicode="&#x11a;" glyph-name="Ecaron" horiz-adv-x="566" d="M94 715H500V685H130V384H431V353H130V31H518V0H94V715ZM167 891H197L296 800L396 891H425L312 771H278L167 891Z" />
<glyph unicode="&#x11b;" glyph-name="ecaron" horiz-adv-x="545" d="M286 -8Q229 -8 184 11T107 66T59 150T42 257V265Q42 323 60 372T109 456T184 511T279 531Q327 531 368 515T439 467T486 388T503 279V264H77Q78 149 131 86T286 22Q354 22 401 52T465 144H499Q481
71 424 32T286 -8ZM469 293Q466 397 415 449T279 501Q237 501 202 486T140 444T97 379T78 293H469ZM151 742H181L278 642L375 742H405L294 613H260L151 742Z" />
<glyph unicode="&#x11c;" glyph-name="Gcircumflex" horiz-adv-x="750" d="M393 -7Q313 -7 250 19T142 94T75 208T51 353V361Q51 440 77 506T148 620T256 695T389 722Q440 722 486 710T571 673T635 610T673 519H637Q615 609 548 650T390 692Q324 692 269 668T173
600T111 495T88 362V354Q88 280 108 219T168 115T263 48T393 24Q525 24 593 97T663 303V310H436V341H698V308Q698 231 676 172T615 74T519 14T393 -7ZM371 891H405L515 771H485L388 861L289 771H259L371 891Z" />
<glyph unicode="&#x11d;" glyph-name="gcircumflex" horiz-adv-x="602" d="M286 -187Q230 -187 189 -174T119 -140T74 -90T53 -30H88Q98 -84 145 -120T285 -157Q328 -157 365 -147T429 -113T471 -54T487 36V161Q478 135 460 109T415 63T354 30T277 17Q228 17 185
34T111 83T61 162T42 268V276Q42 333 61 380T113 460T190 512T285 531Q327 531 360 520T417 489T459 445T487 392V523H521V34Q521 -24 504 -66T455 -135T380 -174T286 -187ZM279 46Q321 46 359 61T425 105T471 175T488 270V277Q488 330 473 372T430 442T367 486T287
501Q243 501 205 486T139 442T94 372T77 277V269Q77 216 92 175T135 105T199 61T279 46ZM271 729H305L414 600H384L288 700L190 600H160L271 729Z" />
<glyph unicode="&#x11e;" glyph-name="Gbreve" horiz-adv-x="750" d="M393 -7Q313 -7 250 19T142 94T75 208T51 353V361Q51 440 77 506T148 620T256 695T389 722Q440 722 486 710T571 673T635 610T673 519H637Q615 609 548 650T390 692Q324 692 269 668T173 600T111
495T88 362V354Q88 280 108 219T168 115T263 48T393 24Q525 24 593 97T663 303V310H436V341H698V308Q698 231 676 172T615 74T519 14T393 -7ZM386 773Q336 773 302 806T263 890H293Q297 852 322 827T386 802Q423 802 449 827T481 890H510Q508 864 498 843T471 806T432
782T386 773Z" />
<glyph unicode="&#x11f;" glyph-name="gbreve" horiz-adv-x="602" d="M286 -187Q230 -187 189 -174T119 -140T74 -90T53 -30H88Q98 -84 145 -120T285 -157Q328 -157 365 -147T429 -113T471 -54T487 36V161Q478 135 460 109T415 63T354 30T277 17Q228 17 185 34T111
83T61 162T42 268V276Q42 333 61 380T113 460T190 512T285 531Q327 531 360 520T417 489T459 445T487 392V523H521V34Q521 -24 504 -66T455 -135T380 -174T286 -187ZM279 46Q321 46 359 61T425 105T471 175T488 270V277Q488 330 473 372T430 442T367 486T287 501Q243
501 205 486T139 442T94 372T77 277V269Q77 216 92 175T135 105T199 61T279 46ZM286 614Q236 614 205 645T169 728H199Q203 690 225 667T286 643Q323 643 346 666T375 728H404Q401 677 368 646T286 614Z" />
<glyph unicode="&#x120;" glyph-name="Gdotaccent" horiz-adv-x="750" d="M393 -7Q313 -7 250 19T142 94T75 208T51 353V361Q51 440 77 506T148 620T256 695T389 722Q440 722 486 710T571 673T635 610T673 519H637Q615 609 548 650T390 692Q324 692 269 668T173
600T111 495T88 362V354Q88 280 108 219T168 115T263 48T393 24Q525 24 593 97T663 303V310H436V341H698V308Q698 231 676 172T615 74T519 14T393 -7ZM387 787Q376 787 369 795T361 814Q361 825 368 832T387 840Q398 840 406 833T414 814Q414 803 406 795T387 787Z"
/>
<glyph unicode="&#x121;" glyph-name="gdotaccent" horiz-adv-x="602" d="M286 -187Q230 -187 189 -174T119 -140T74 -90T53 -30H88Q98 -84 145 -120T285 -157Q328 -157 365 -147T429 -113T471 -54T487 36V161Q478 135 460 109T415 63T354 30T277 17Q228 17 185
34T111 83T61 162T42 268V276Q42 333 61 380T113 460T190 512T285 531Q327 531 360 520T417 489T459 445T487 392V523H521V34Q521 -24 504 -66T455 -135T380 -174T286 -187ZM279 46Q321 46 359 61T425 105T471 175T488 270V277Q488 330 473 372T430 442T367 486T287
501Q243 501 205 486T139 442T94 372T77 277V269Q77 216 92 175T135 105T199 61T279 46ZM287 637Q276 637 269 645T261 664Q261 675 268 682T287 690Q298 690 306 683T314 664Q314 653 306 645T287 637Z" />
<glyph unicode="&#x122;" glyph-name="Gcommaaccent" horiz-adv-x="750" d="M393 -7Q313 -7 250 19T142 94T75 208T51 353V361Q51 440 77 506T148 620T256 695T389 722Q440 722 486 710T571 673T635 610T673 519H637Q615 609 548 650T390 692Q324 692 269 668T173
600T111 495T88 362V354Q88 280 108 219T168 115T263 48T393 24Q525 24 593 97T663 303V310H436V341H698V308Q698 231 676 172T615 74T519 14T393 -7ZM323 -184L381 -44L415 -53L347 -195L323 -184Z" />
<glyph unicode="&#x123;" glyph-name="gcommaaccent" horiz-adv-x="602" d="M286 -187Q230 -187 189 -174T119 -140T74 -90T53 -30H88Q98 -84 145 -120T285 -157Q328 -157 365 -147T429 -113T471 -54T487 36V161Q478 135 460 109T415 63T354 30T277 17Q228 17
185 34T111 83T61 162T42 268V276Q42 333 61 380T113 460T190 512T285 531Q327 531 360 520T417 489T459 445T487 392V523H521V34Q521 -24 504 -66T455 -135T380 -174T286 -187ZM279 46Q321 46 359 61T425 105T471 175T488 270V277Q488 330 473 372T430 442T367
486T287 501Q243 501 205 486T139 442T94 372T77 277V269Q77 216 92 175T135 105T199 61T279 46ZM263 619L331 761L355 750L297 610L263 619Z" />
<glyph unicode="&#x124;" glyph-name="Hcircumflex" horiz-adv-x="709" d="M94 715H130V376H579V715H615V0H579V345H130V0H94V715ZM338 891H372L482 771H452L355 861L256 771H226L338 891Z" />
<glyph unicode="&#x125;" glyph-name="hcircumflex" horiz-adv-x="573" d="M81 773H115V409Q124 433 142 455T185 494T242 521T310 531Q395 531 446 482T497 323V0H463V324Q463 417 422 459T305 501Q270 501 236 489T175 454T132 397T115 317V0H81V773ZM276 933H310L420
813H390L293 903L194 813H164L276 933Z" />
<glyph unicode="&#x126;" glyph-name="Hbar" horiz-adv-x="709" d="M8 550H94V715H130V550H579V715H615V550H701V522H615V0H579V345H130V0H94V522H8V550ZM579 376V522H130V376H579Z" />
<glyph unicode="&#x127;" glyph-name="hbar" horiz-adv-x="573" d="M2 656H81V773H115V656H311V629H115V409Q124 433 142 455T185 494T242 521T310 531Q395 531 446 482T497 323V0H463V324Q463 417 422 459T305 501Q270 501 236 489T175 454T132 397T115 317V0H81V629H2V656Z"
/>
<glyph unicode="&#x128;" glyph-name="Itilde" horiz-adv-x="234" d="M99 715H135V0H99V715ZM441 773Q422 773 405 782T371 803T339 823T309 833Q289 833 276 818T258 774H231Q236 819 257 841T309 863Q327 863 344 854T378 833T410 813T441 803Q460 803 473 818T491
862H518Q513 817 492 795T441 773Z" />
<glyph unicode="&#x129;" glyph-name="itilde" horiz-adv-x="200" d="M83 523H117V0H83V523ZM425 615Q406 615 388 624T354 644T322 664T292 673Q275 673 261 659T242 615H215Q220 660 241 681T293 703Q311 703 328 694T362 674T395 653T426 644Q443 644 457 659T475
703H502Q497 658 476 637T425 615Z" />
<glyph unicode="&#x12a;" glyph-name="Imacron" horiz-adv-x="234" d="M99 715H135V0H99V715ZM256 823H492V794H256V823Z" />
<glyph unicode="&#x12b;" glyph-name="imacron" horiz-adv-x="200" d="M20 675H181V647H20V675ZM83 523H117V0H83V523Z" />
<glyph unicode="&#x12c;" glyph-name="Ibreve" horiz-adv-x="234" d="M99 715H135V0H99V715ZM373 773Q323 773 289 806T250 890H280Q284 852 309 827T373 802Q410 802 436 827T468 890H497Q495 864 485 843T458 806T419 782T373 773Z" />
<glyph unicode="&#x12d;" glyph-name="ibreve" horiz-adv-x="200" d="M83 523H117V0H83V523ZM357 614Q307 614 276 645T240 728H270Q274 690 296 667T357 643Q394 643 417 666T446 728H475Q472 677 439 646T357 614Z" />
<glyph unicode="&#x12e;" glyph-name="Iogonek" horiz-adv-x="234" d="M120 -182Q78 -182 56 -162T33 -110Q33 -74 54 -47T101 3H99V715H135V1Q107 -21 87 -47T67 -106Q67 -127 80 -140T123 -154Q148 -154 172 -145V-172Q149 -182 120 -182Z" />
<glyph unicode="&#x12f;" glyph-name="iogonek" horiz-adv-x="200" d="M109 -182Q67 -182 45 -162T22 -110Q22 -75 41 -48T85 2H83V523H117V1Q92 -22 74 -48T55 -106Q55 -127 69 -141T112 -155Q137 -155 161 -146V-172Q138 -182 109 -182ZM100 637Q89 637 81 645T73
664Q73 675 81 682T100 690Q111 690 118 683T126 664Q126 653 119 645T100 637Z" />
<glyph unicode="&#x130;" glyph-name="Idotaccent" horiz-adv-x="234" d="M99 715H135V0H99V715ZM374 787Q363 787 356 795T348 814Q348 825 355 832T374 840Q385 840 393 833T401 814Q401 803 393 795T374 787Z" />
<glyph unicode="&#x131;" glyph-name="dotlessi" horiz-adv-x="200" d="M83 523H117V0H83V523Z" />
<glyph unicode="&#x132;" glyph-name="IJ" horiz-adv-x="590" d="M99 715H135V0H99V715ZM338 -5Q302 -5 277 1T237 15V47Q255 39 279 32T336 25Q400 25 436 59T473 173V715H509V172Q509 125 497 92T462 37T408 5T338 -5Z" />
<glyph unicode="&#x133;" glyph-name="ij" horiz-adv-x="200" d="M83 523H117V0H83V523ZM100 637Q89 637 81 645T73 664Q73 675 81 682T100 690Q111 690 118 683T126 664Q126 653 119 645T100 637ZM206 -156Q251 -152 267 -130T283 -60V523H317V-58Q317 -121 293
-152T206 -186V-156ZM300 637Q289 637 281 645T273 664Q273 675 281 682T300 690Q311 690 318 683T326 664Q326 653 319 645T300 637Z" />
<glyph unicode="&#x134;" glyph-name="Jcircumflex" horiz-adv-x="389" d="M137 -5Q101 -5 76 1T36 15V47Q54 39 78 32T135 25Q199 25 235 59T272 173V715H308V172Q308 125 296 92T261 37T207 5T137 -5ZM274 891H308L418 771H388L291 861L192 771H162L274 891Z" />
<glyph unicode="&#x135;" glyph-name="jcircumflex" horiz-adv-x="200" d="M6 -156Q51 -152 67 -130T83 -60V523H117V-58Q117 -121 93 -152T6 -186V-156ZM342 729H376L485 600H455L359 700L261 600H231L342 729Z" />
<glyph unicode="&#x136;" glyph-name="Kcommaaccent" horiz-adv-x="588" d="M135 364L500 715H542L179 367L560 0H515L135 364ZM94 715H130V0H94V715ZM241 -184L299 -44L333 -53L265 -195L241 -184Z" />
<glyph unicode="&#x137;" glyph-name="kcommaaccent" horiz-adv-x="468" d="M118 277L393 523H435L160 278L451 0H407L118 277ZM81 773H115V0H81V773ZM181 -184L239 -44L273 -53L205 -195L181 -184Z" />
<glyph unicode="&#x139;" glyph-name="Lacute" horiz-adv-x="528" d="M94 715H130V31H490V0H94V715ZM419 891H460L379 771H350L419 891Z" />
<glyph unicode="&#x13a;" glyph-name="lacute" horiz-adv-x="201" d="M83 773H118V0H83V773ZM406 933H447L366 813H337L406 933Z" />
<glyph unicode="&#x13b;" glyph-name="Lcommaaccent" horiz-adv-x="528" d="M94 715H130V31H490V0H94V715ZM218 -184L276 -44L310 -53L242 -195L218 -184Z" />
<glyph unicode="&#x13c;" glyph-name="lcommaaccent" horiz-adv-x="201" d="M83 773H118V0H83V773ZM290 -184L348 -44L382 -53L314 -195L290 -184Z" />
<glyph unicode="&#x13d;" glyph-name="Lcaron" horiz-adv-x="528" d="M336 715H374L338 558H310L336 715ZM94 715H130V31H490V0H94V715Z" />
<glyph unicode="&#x13e;" glyph-name="lcaron" horiz-adv-x="201" d="M83 773H118V0H83V773ZM190 773H227L204 619H177L190 773Z" />
<glyph unicode="&#x13f;" glyph-name="Ldot" horiz-adv-x="528" d="M94 715H130V31H490V0H94V715ZM432 342Q419 342 411 350T403 371Q403 383 411 391T432 400Q444 400 452 392T460 371Q460 359 452 351T432 342Z" />
<glyph unicode="&#x140;" glyph-name="ldot" horiz-adv-x="249" d="M83 773H118V0H83V773ZM224 348Q211 348 203 356T195 377Q195 389 203 397T224 406Q236 406 244 398T252 377Q252 365 244 357T224 348Z" />
<glyph unicode="&#x141;" glyph-name="Lslash" horiz-adv-x="539" d="M29 294L106 322V715H142V336L379 424V395L142 307V31H502V0H106V293L29 265V294Z" />
<glyph unicode="&#x142;" glyph-name="lslash" horiz-adv-x="216" d="M13 377L91 429V773H125V452L207 507V475L125 420V0H91V397L13 345V377Z" />
<glyph unicode="&#x143;" glyph-name="Nacute" horiz-adv-x="707" d="M94 715H145L578 48V715H613V0H569L129 678V0H94V715ZM412 891H453L372 771H343L412 891Z" />
<glyph unicode="&#x144;" glyph-name="nacute" horiz-adv-x="573" d="M81 523H115V409Q124 433 142 455T185 494T242 521T310 531Q395 531 446 482T497 323V0H463V324Q463 417 422 459T305 501Q270 501 236 489T175 454T132 397T115 317V0H81V523ZM334 747H375L291
600H263L334 747Z" />
<glyph unicode="&#x145;" glyph-name="Ncommaaccent" horiz-adv-x="707" d="M94 715H145L578 48V715H613V0H569L129 678V0H94V715ZM279 -184L337 -44L371 -53L303 -195L279 -184Z" />
<glyph unicode="&#x146;" glyph-name="ncommaaccent" horiz-adv-x="573" d="M81 523H115V409Q124 433 142 455T185 494T242 521T310 531Q395 531 446 482T497 323V0H463V324Q463 417 422 459T305 501Q270 501 236 489T175 454T132 397T115 317V0H81V523ZM221 -184L279
-44L313 -53L245 -195L221 -184Z" />
<glyph unicode="&#x147;" glyph-name="Ncaron" horiz-adv-x="707" d="M94 715H145L578 48V715H613V0H569L129 678V0H94V715ZM235 891H265L364 800L464 891H493L380 771H346L235 891Z" />
<glyph unicode="&#x148;" glyph-name="ncaron" horiz-adv-x="573" d="M81 523H115V409Q124 433 142 455T185 494T242 521T310 531Q395 531 446 482T497 323V0H463V324Q463 417 422 459T305 501Q270 501 236 489T175 454T132 397T115 317V0H81V523ZM158 742H188L285
642L382 742H412L301 613H267L158 742Z" />
<glyph unicode="&#x149;" glyph-name="napostrophe" horiz-adv-x="585" d="M92 523H126V409Q135 433 153 455T196 494T253 521T321 531Q406 531 457 482T508 323V0H474V324Q474 417 433 459T316 501Q281 501 247 489T186 454T143 397T126 317V0H92V523ZM227 564L293
720L327 706L251 553L227 564Z" />
<glyph unicode="&#x14a;" glyph-name="Eng" horiz-adv-x="707" d="M441 -189Q405 -189 380 -182T341 -168V-137Q359 -145 383 -151T440 -158Q503 -158 539 -125T578 -8L129 678V0H94V715H145L578 53V715H613V-3Q613 -53 601 -88T566 -145T511 -178T441 -189Z" />
<glyph unicode="&#x14b;" glyph-name="eng" horiz-adv-x="573" d="M371 -156Q421 -152 442 -127T463 -42V324Q463 417 422 459T305 501Q270 501 236 489T175 454T132 397T115 317V0H81V523H115V409Q124 433 142 455T185 494T242 521T310 531Q395 531 446 482T497
323V-40Q497 -116 468 -149T371 -186V-156Z" />
<glyph unicode="&#x14c;" glyph-name="Omacron" horiz-adv-x="795" d="M400 24Q467 24 523 49T620 119T684 224T707 356V364Q707 433 684 492T620 596T523 666T398 692Q330 692 273 667T175 597T111 492T88 361V353Q88 283 111 223T177 119T276 49T400 24ZM400
-7Q325 -7 261 21T151 98T78 212T51 353V361Q51 437 77 503T151 617T261 694T398 722Q472 722 535 695T644 619T717 505T744 364V356Q744 280 718 214T645 99T536 22T400 -7ZM279 823H515V794H279V823Z" />
<glyph unicode="&#x14d;" glyph-name="omacron" horiz-adv-x="583" d="M292 22Q336 22 375 38T443 85T489 159T506 258V266Q506 321 489 365T443 439T375 485T293 501Q249 501 210 485T142 438T95 364T77 265V257Q77 203 94 160T140 86T208 39T292 22ZM291 -8Q240
-8 195 11T115 66T62 150T42 257V265Q42 324 62 372T116 456T196 510T293 530Q344 530 389 511T468 458T521 375T541 266V258Q541 199 521 150T467 66T388 12T291 -8ZM176 675H406V647H176V675Z" />
<glyph unicode="&#x14e;" glyph-name="Obreve" horiz-adv-x="795" d="M400 24Q467 24 523 49T620 119T684 224T707 356V364Q707 433 684 492T620 596T523 666T398 692Q330 692 273 667T175 597T111 492T88 361V353Q88 283 111 223T177 119T276 49T400 24ZM400
-7Q325 -7 261 21T151 98T78 212T51 353V361Q51 437 77 503T151 617T261 694T398 722Q472 722 535 695T644 619T717 505T744 364V356Q744 280 718 214T645 99T536 22T400 -7ZM396 773Q346 773 312 806T273 890H303Q307 852 332 827T396 802Q433 802 459 827T491
890H520Q518 864 508 843T481 806T442 782T396 773Z" />
<glyph unicode="&#x14f;" glyph-name="obreve" horiz-adv-x="583" d="M292 22Q336 22 375 38T443 85T489 159T506 258V266Q506 321 489 365T443 439T375 485T293 501Q249 501 210 485T142 438T95 364T77 265V257Q77 203 94 160T140 86T208 39T292 22ZM291 -8Q240
-8 195 11T115 66T62 150T42 257V265Q42 324 62 372T116 456T196 510T293 530Q344 530 389 511T468 458T521 375T541 266V258Q541 199 521 150T467 66T388 12T291 -8ZM290 614Q240 614 209 645T173 728H203Q207 690 229 667T290 643Q327 643 350 666T379 728H408Q405
677 372 646T290 614Z" />
<glyph unicode="&#x150;" glyph-name="Ohungarumlaut" horiz-adv-x="795" d="M400 24Q467 24 523 49T620 119T684 224T707 356V364Q707 433 684 492T620 596T523 666T398 692Q330 692 273 667T175 597T111 492T88 361V353Q88 283 111 223T177 119T276 49T400 24ZM400
-7Q325 -7 261 21T151 98T78 212T51 353V361Q51 437 77 503T151 617T261 694T398 722Q472 722 535 695T644 619T717 505T744 364V356Q744 280 718 214T645 99T536 22T400 -7ZM372 891H411L350 771H322L372 891ZM490 891H529L468 771H440L490 891Z" />
<glyph unicode="&#x151;" glyph-name="ohungarumlaut" horiz-adv-x="583" d="M292 22Q336 22 375 38T443 85T489 159T506 258V266Q506 321 489 365T443 439T375 485T293 501Q249 501 210 485T142 438T95 364T77 265V257Q77 203 94 160T140 86T208 39T292 22ZM291
-8Q240 -8 195 11T115 66T62 150T42 257V265Q42 324 62 372T116 456T196 510T293 530Q344 530 389 511T468 458T521 375T541 266V258Q541 199 521 150T467 66T388 12T291 -8ZM276 747H314L249 600H221L276 747ZM394 747H432L367 600H339L394 747Z" />
<glyph unicode="&#x152;" glyph-name="OE" horiz-adv-x="957" d="M51 359Q51 433 72 498T138 611T249 687T406 715H892V685H536V384H822V353H536V31H910V0H404Q317 0 251 26T141 100T74 211T51 350V359ZM408 685Q327 685 267 661T167 593T108 489T88 359V351Q88
283 107 224T166 122T266 55T409 30H500V685H408Z" />
<glyph unicode="&#x153;" glyph-name="oe" horiz-adv-x="1009" d="M291 -8Q240 -8 195 11T115 66T62 150T42 257V265Q42 324 62 372T116 456T196 510T293 530Q374 530 436 485T523 358Q546 438 604 484T743 531Q791 531 832 515T903 467T950 388T967 279V264H541Q542
149 595 86T750 22Q818 22 865 52T929 144H963Q945 71 888 32T750 -8Q659 -8 601 39T522 165Q510 125 488 93T435 39T368 4T291 -8ZM292 22Q336 22 375 38T443 85T489 159T506 258V266Q506 321 489 365T443 439T375 485T293 501Q249 501 210 485T142 438T95 364T77
265V257Q77 203 94 160T140 86T208 39T292 22ZM932 293Q930 396 878 448T743 501Q701 501 666 486T604 444T561 379T542 293H932Z" />
<glyph unicode="&#x154;" glyph-name="Racute" horiz-adv-x="593" d="M94 715H277Q329 715 373 705T449 673T498 615T516 528V524Q516 479 502 446T463 391T403 355T326 338L558 0H517L287 335H129V0H94V715ZM278 365Q371 365 425 401T480 524V528Q480 572 466
602T424 650T360 677T278 685H129V365H278ZM332 891H373L292 771H263L332 891Z" />
<glyph unicode="&#x155;" glyph-name="racute" horiz-adv-x="331" d="M81 523H115V403Q125 428 140 450T178 489T230 516T296 528V497Q259 495 226 484T169 448T130 385T115 292V0H81V523ZM490 747H531L447 600H419L490 747Z" />
<glyph unicode="&#x156;" glyph-name="Rcommaaccent" horiz-adv-x="593" d="M94 715H277Q329 715 373 705T449 673T498 615T516 528V524Q516 479 502 446T463 391T403 355T326 338L558 0H517L287 335H129V0H94V715ZM278 365Q371 365 425 401T480 524V528Q480 572
466 602T424 650T360 677T278 685H129V365H278ZM235 -184L293 -44L327 -53L259 -195L235 -184Z" />
<glyph unicode="&#x157;" glyph-name="rcommaaccent" horiz-adv-x="331" d="M81 523H115V403Q125 428 140 450T178 489T230 516T296 528V497Q259 495 226 484T169 448T130 385T115 292V0H81V523ZM288 -184L346 -44L380 -53L312 -195L288 -184Z" />
<glyph unicode="&#x158;" glyph-name="Rcaron" horiz-adv-x="593" d="M94 715H277Q329 715 373 705T449 673T498 615T516 528V524Q516 479 502 446T463 391T403 355T326 338L558 0H517L287 335H129V0H94V715ZM278 365Q371 365 425 401T480 524V528Q480 572 466
602T424 650T360 677T278 685H129V365H278ZM155 891H185L284 800L384 891H413L300 771H266L155 891Z" />
<glyph unicode="&#x159;" glyph-name="rcaron" horiz-adv-x="331" d="M81 523H115V403Q125 428 140 450T178 489T230 516T296 528V497Q259 495 226 484T169 448T130 385T115 292V0H81V523ZM314 742H344L441 642L538 742H568L457 613H423L314 742Z" />
<glyph unicode="&#x15a;" glyph-name="Sacute" horiz-adv-x="586" d="M299 -7Q236 -7 190 9T112 52T63 117T39 197H74Q79 162 93 131T135 76T202 38T299 24Q346 24 383 36T445 71T484 123T498 189Q498 231 487 259T452 306T389 337T295 357Q175 374 122 417T68
540Q68 582 84 615T129 672T199 709T290 722Q386 722 441 678T510 553H476Q463 619 419 655T290 692Q202 692 153 654T103 542Q103 510 112 486T145 443T206 411T300 390Q361 381 405 368T477 332T520 275T534 190Q534 149 518 113T472 51T398 9T299 -7ZM337 891H378L297
771H268L337 891Z" />
<glyph unicode="&#x15b;" glyph-name="sacute" horiz-adv-x="456" d="M235 -9Q144 -9 93 36T36 154H69Q77 96 116 58T235 20Q306 20 343 53T380 136Q380 164 373 183T348 216T302 237T234 254Q188 262 154 272T98 299T65 338T54 396Q54 427 67 451T104 493T158
520T225 530Q296 530 343 498T402 394H369Q348 501 224 501Q162 501 124 473T86 396Q86 370 94 353T121 322T170 300T242 284Q285 276 317 266T371 240T403 199T414 138Q414 107 402 81T367 34T311 3T235 -9ZM278 747H319L235 600H207L278 747Z" />
<glyph unicode="&#x15c;" glyph-name="Scircumflex" horiz-adv-x="586" d="M299 -7Q236 -7 190 9T112 52T63 117T39 197H74Q79 162 93 131T135 76T202 38T299 24Q346 24 383 36T445 71T484 123T498 189Q498 231 487 259T452 306T389 337T295 357Q175 374 122 417T68
540Q68 582 84 615T129 672T199 709T290 722Q386 722 441 678T510 553H476Q463 619 419 655T290 692Q202 692 153 654T103 542Q103 510 112 486T145 443T206 411T300 390Q361 381 405 368T477 332T520 275T534 190Q534 149 518 113T472 51T398 9T299 -7ZM274 891H308L418
771H388L291 861L192 771H162L274 891Z" />
<glyph unicode="&#x15d;" glyph-name="scircumflex" horiz-adv-x="456" d="M235 -9Q144 -9 93 36T36 154H69Q77 96 116 58T235 20Q306 20 343 53T380 136Q380 164 373 183T348 216T302 237T234 254Q188 262 154 272T98 299T65 338T54 396Q54 427 67 451T104 493T158
520T225 530Q296 530 343 498T402 394H369Q348 501 224 501Q162 501 124 473T86 396Q86 370 94 353T121 322T170 300T242 284Q285 276 317 266T371 240T403 199T414 138Q414 107 402 81T367 34T311 3T235 -9ZM213 729H247L356 600H326L230 700L132 600H102L213
729Z" />
<glyph unicode="&#x15e;" glyph-name="Scedilla" horiz-adv-x="586" d="M269 -211Q231 -211 206 -191T177 -136H209Q212 -157 227 -170T268 -183Q294 -183 309 -170T324 -134Q324 -108 308 -99T272 -89Q258 -89 248 -93T233 -99L213 -81L256 -5Q204 0 166 17T101
62T59 123T39 197H74Q79 162 93 131T135 76T202 38T299 24Q346 24 383 36T445 71T484 123T498 189Q498 231 487 259T452 306T389 337T295 357Q175 374 122 417T68 540Q68 582 84 615T129 672T199 709T290 722Q386 722 441 678T510 553H476Q463 619 419 655T290
692Q202 692 153 654T103 542Q103 510 112 486T145 443T206 411T300 390Q361 381 405 368T477 332T520 275T534 190Q534 149 518 113T472 51T398 9T299 -7H287L253 -67Q272 -61 290 -62T324 -72T348 -96T357 -135Q357 -172 332 -191T269 -211Z" />
<glyph unicode="&#x15f;" glyph-name="scedilla" horiz-adv-x="456" d="M212 -211Q174 -211 149 -191T120 -136H152Q155 -157 170 -170T211 -183Q237 -183 252 -170T267 -134Q267 -108 251 -99T215 -89Q201 -89 191 -93T176 -99L156 -81L198 -7Q123 2 82 45T36
154H69Q77 96 116 58T235 20Q306 20 343 53T380 136Q380 164 373 183T348 216T302 237T234 254Q188 262 154 272T98 299T65 338T54 396Q54 427 67 451T104 493T158 520T225 530Q296 530 343 498T402 394H369Q348 501 224 501Q162 501 124 473T86 396Q86 370 94
353T121 322T170 300T242 284Q285 276 317 266T371 240T403 199T414 138Q414 107 402 81T367 34T311 3T235 -9H229L196 -67Q215 -61 233 -62T267 -72T291 -96T300 -135Q300 -172 275 -191T212 -211Z" />
<glyph unicode="&#x160;" glyph-name="Scaron" horiz-adv-x="586" d="M299 -7Q236 -7 190 9T112 52T63 117T39 197H74Q79 162 93 131T135 76T202 38T299 24Q346 24 383 36T445 71T484 123T498 189Q498 231 487 259T452 306T389 337T295 357Q175 374 122 417T68
540Q68 582 84 615T129 672T199 709T290 722Q386 722 441 678T510 553H476Q463 619 419 655T290 692Q202 692 153 654T103 542Q103 510 112 486T145 443T206 411T300 390Q361 381 405 368T477 332T520 275T534 190Q534 149 518 113T472 51T398 9T299 -7ZM158 891H188L287
800L387 891H416L303 771H269L158 891Z" />
<glyph unicode="&#x161;" glyph-name="scaron" horiz-adv-x="456" d="M235 -9Q144 -9 93 36T36 154H69Q77 96 116 58T235 20Q306 20 343 53T380 136Q380 164 373 183T348 216T302 237T234 254Q188 262 154 272T98 299T65 338T54 396Q54 427 67 451T104 493T158
520T225 530Q296 530 343 498T402 394H369Q348 501 224 501Q162 501 124 473T86 396Q86 370 94 353T121 322T170 300T242 284Q285 276 317 266T371 240T403 199T414 138Q414 107 402 81T367 34T311 3T235 -9ZM102 742H132L229 642L326 742H356L245 613H211L102
742Z" />
<glyph unicode="&#x162;" glyph-name="Tcommaaccent" horiz-adv-x="558" d="M261 685H31V715H528V685H297V0H261V685ZM214 -184L272 -44L306 -53L238 -195L214 -184Z" />
<glyph unicode="&#x163;" glyph-name="tcommaaccent" horiz-adv-x="328" d="M221 -7Q165 -7 134 25T102 123V494H23V523H102V642H136V523H282V494H136V125Q136 71 160 47T223 23Q244 23 259 26T289 34V4Q276 -1 261 -4T221 -7ZM371 -184L429 -44L463 -53L395 -195L371
-184Z" />
<glyph unicode="&#x164;" glyph-name="Tcaron" horiz-adv-x="558" d="M261 685H31V715H528V685H297V0H261V685ZM149 891H179L278 800L378 891H407L294 771H260L149 891Z" />
<glyph unicode="&#x165;" glyph-name="tcaron" horiz-adv-x="328" d="M221 -7Q165 -7 134 25T102 123V494H23V523H102V642H136V523H282V494H136V125Q136 71 160 47T223 23Q244 23 259 26T289 34V4Q276 -1 261 -4T221 -7ZM249 773H286L263 619H236L249 773Z" />
<glyph unicode="&#x166;" glyph-name="Tbar" horiz-adv-x="558" d="M105 410H261V685H31V715H528V685H297V410H454V382H297V0H261V382H105V410Z" />
<glyph unicode="&#x167;" glyph-name="tbar" horiz-adv-x="328" d="M23 342H102V494H23V523H102V642H136V523H282V494H136V342H282V315H136V125Q136 71 160 47T223 23Q244 23 259 26T289 34V4Q276 -1 261 -4T221 -7Q165 -7 134 25T102 123V315H23V342Z" />
<glyph unicode="&#x168;" glyph-name="Utilde" horiz-adv-x="674" d="M336 -5Q217 -5 149 60T80 253V715H116V256Q116 140 173 83T336 26Q451 26 504 85T557 269V715H593V264Q593 137 530 66T336 -5ZM403 773Q384 773 367 782T333 803T301 823T271 833Q251 833
238 818T220 774H193Q198 819 219 841T271 863Q289 863 306 854T340 833T372 813T403 803Q422 803 435 818T453 862H480Q475 817 454 795T403 773Z" />
<glyph unicode="&#x169;" glyph-name="utilde" horiz-adv-x="569" d="M262 -8Q220 -8 186 3T127 38T90 100T76 193V523H110V194Q110 102 152 63T267 23Q301 23 335 34T395 68T437 125T454 204V523H488V0H454V112Q445 88 428 66T386 28T330 2T262 -8ZM352 615Q333
615 315 624T281 644T249 664T219 673Q202 673 188 659T169 615H142Q147 660 168 681T220 703Q238 703 255 694T289 674T322 653T353 644Q370 644 384 659T402 703H429Q424 658 403 637T352 615Z" />
<glyph unicode="&#x16a;" glyph-name="Umacron" horiz-adv-x="674" d="M336 -5Q217 -5 149 60T80 253V715H116V256Q116 140 173 83T336 26Q451 26 504 85T557 269V715H593V264Q593 137 530 66T336 -5ZM218 823H454V794H218V823Z" />
<glyph unicode="&#x16b;" glyph-name="umacron" horiz-adv-x="569" d="M262 -8Q220 -8 186 3T127 38T90 100T76 193V523H110V194Q110 102 152 63T267 23Q301 23 335 34T395 68T437 125T454 204V523H488V0H454V112Q445 88 428 66T386 28T330 2T262 -8ZM170 675H400V647H170V675Z"
/>
<glyph unicode="&#x16c;" glyph-name="Ubreve" horiz-adv-x="674" d="M336 -5Q217 -5 149 60T80 253V715H116V256Q116 140 173 83T336 26Q451 26 504 85T557 269V715H593V264Q593 137 530 66T336 -5ZM336 773Q286 773 252 806T213 890H243Q247 852 272 827T336
802Q373 802 399 827T431 890H460Q458 864 448 843T421 806T382 782T336 773Z" />
<glyph unicode="&#x16d;" glyph-name="ubreve" horiz-adv-x="569" d="M262 -8Q220 -8 186 3T127 38T90 100T76 193V523H110V194Q110 102 152 63T267 23Q301 23 335 34T395 68T437 125T454 204V523H488V0H454V112Q445 88 428 66T386 28T330 2T262 -8ZM284 614Q234
614 203 645T167 728H197Q201 690 223 667T284 643Q321 643 344 666T373 728H402Q399 677 366 646T284 614Z" />
<glyph unicode="&#x16e;" glyph-name="Uring" horiz-adv-x="674" d="M336 -5Q217 -5 149 60T80 253V715H116V256Q116 140 173 83T336 26Q451 26 504 85T557 269V715H593V264Q593 137 530 66T336 -5ZM336 748Q365 748 384 767T403 815Q403 844 384 863T336 883Q309
883 290 864T270 815Q270 787 289 768T336 748ZM336 726Q317 726 301 733T272 752T252 781T244 815Q244 853 271 879T336 906Q355 906 372 899T402 880T422 851T429 815Q429 797 422 781T402 753T372 733T336 726Z" />
<glyph unicode="&#x16f;" glyph-name="uring" horiz-adv-x="569" d="M262 -8Q220 -8 186 3T127 38T90 100T76 193V523H110V194Q110 102 152 63T267 23Q301 23 335 34T395 68T437 125T454 204V523H488V0H454V112Q445 88 428 66T386 28T330 2T262 -8ZM284 875Q313
875 332 894T351 942Q351 971 332 990T284 1010Q257 1010 238 991T218 942Q218 914 237 895T284 875ZM284 853Q265 853 249 860T220 879T200 908T192 942Q192 980 219 1006T284 1033Q303 1033 320 1026T350 1007T370 978T377 942Q377 924 370 908T350 880T320 860T284
853Z" />
<glyph unicode="&#x170;" glyph-name="Uhungarumlaut" horiz-adv-x="674" d="M336 -5Q217 -5 149 60T80 253V715H116V256Q116 140 173 83T336 26Q451 26 504 85T557 269V715H593V264Q593 137 530 66T336 -5ZM311 891H350L289 771H261L311 891ZM429 891H468L407
771H379L429 891Z" />
<glyph unicode="&#x171;" glyph-name="uhungarumlaut" horiz-adv-x="569" d="M262 -8Q220 -8 186 3T127 38T90 100T76 193V523H110V194Q110 102 152 63T267 23Q301 23 335 34T395 68T437 125T454 204V523H488V0H454V112Q445 88 428 66T386 28T330 2T262 -8ZM269
747H307L242 600H214L269 747ZM387 747H425L360 600H332L387 747Z" />
<glyph unicode="&#x172;" glyph-name="Uogonek" horiz-adv-x="674" d="M380 -182Q338 -182 316 -162T293 -110Q293 -78 314 -50T369 -4Q362 -5 353 -5T336 -5Q217 -5 149 60T80 253V715H116V256Q116 140 173 83T336 26Q451 26 504 85T557 269V715H593V264Q593
170 560 107T457 16Q430 5 407 -7T366 -33T338 -66T327 -106Q327 -127 340 -140T383 -154Q408 -154 432 -145V-172Q409 -182 380 -182Z" />
<glyph unicode="&#x173;" glyph-name="uogonek" horiz-adv-x="569" d="M461 -182Q419 -182 397 -162T374 -110Q374 -92 381 -76T399 -46T425 -19T456 4H454V112Q445 88 428 66T386 28T330 2T262 -8Q220 -8 186 3T127 38T90 100T76 193V523H110V194Q110 102 152
63T267 23Q301 23 335 34T395 68T437 125T454 204V523H488V1Q449 -25 428 -51T407 -106Q407 -127 421 -141T464 -155Q489 -155 513 -146V-172Q490 -182 461 -182Z" />
<glyph unicode="&#x174;" glyph-name="Wcircumflex" horiz-adv-x="915" d="M32 715H68L244 52L446 715H471L662 50L850 715H883L680 0H642L458 648L260 0H223L32 715ZM441 891H475L585 771H555L458 861L359 771H329L441 891Z" />
<glyph unicode="&#x175;" glyph-name="wcircumflex" horiz-adv-x="765" d="M30 523H66L217 41L370 523H399L548 41L701 523H735L569 0H528L384 466L235 0H194L30 523ZM367 729H401L510 600H480L384 700L286 600H256L367 729Z" />
<glyph unicode="&#x176;" glyph-name="Ycircumflex" horiz-adv-x="565" d="M272 322L22 715H63L291 353L506 715H543L308 322V0H272V322ZM271 891H305L415 771H385L288 861L189 771H159L271 891Z" />
<glyph unicode="&#x177;" glyph-name="ycircumflex" horiz-adv-x="495" d="M234 40L26 523H62L252 79L433 523H469L177 -182H142L234 40ZM233 729H267L376 600H346L250 700L152 600H122L233 729Z" />
<glyph unicode="&#x178;" glyph-name="Ydieresis" horiz-adv-x="565" d="M272 322L22 715H63L291 353L506 715H543L308 322V0H272V322ZM204 788Q193 788 186 795T178 814Q178 825 185 832T204 840Q215 840 222 833T230 814Q230 803 223 796T204 788ZM370 788Q359
788 352 795T344 814Q344 825 351 832T370 840Q381 840 388 833T396 814Q396 803 389 796T370 788Z" />
<glyph unicode="&#x179;" glyph-name="Zacute" horiz-adv-x="582" d="M27 9L493 685H63V715H545V707L81 31H539V0H27V9ZM346 891H387L306 771H277L346 891Z" />
<glyph unicode="&#x17a;" glyph-name="zacute" horiz-adv-x="468" d="M26 7L385 494H56V523H439V516L82 30H432V0H26V7ZM293 747H334L250 600H222L293 747Z" />
<glyph unicode="&#x17b;" glyph-name="Zdotaccent" horiz-adv-x="582" d="M27 9L493 685H63V715H545V707L81 31H539V0H27V9ZM298 787Q287 787 280 795T272 814Q272 825 279 832T298 840Q309 840 317 833T325 814Q325 803 317 795T298 787Z" />
<glyph unicode="&#x17c;" glyph-name="zdotaccent" horiz-adv-x="468" d="M26 7L385 494H56V523H439V516L82 30H432V0H26V7ZM244 637Q233 637 226 645T218 664Q218 675 225 682T244 690Q255 690 263 683T271 664Q271 653 263 645T244 637Z" />
<glyph unicode="&#x17d;" glyph-name="Zcaron" horiz-adv-x="582" d="M27 9L493 685H63V715H545V707L81 31H539V0H27V9ZM169 891H199L298 800L398 891H427L314 771H280L169 891Z" />
<glyph unicode="&#x17e;" glyph-name="zcaron" horiz-adv-x="468" d="M26 7L385 494H56V523H439V516L82 30H432V0H26V7ZM117 742H147L244 642L341 742H371L260 613H226L117 742Z" />
<glyph unicode="&#x192;" glyph-name="florin" horiz-adv-x="376" d="M30 397H122L148 567Q155 610 169 640T203 689T249 716T305 724Q328 724 343 721T373 713V683Q362 687 345 691T305 695Q257 695 225 667T182 566L156 397H309V368H151L68 -182H34L117 368H30V397Z" />
<glyph unicode="&#x1fa;" glyph-name="Aringacute" horiz-adv-x="641" d="M296 715H344L610 0H574L489 228H150L66 0H32L296 715ZM161 258H478L319 686L161 258ZM316 1029Q345 1029 364 1048T383 1096Q383 1125 364 1144T316 1164Q289 1164 270 1145T250 1096Q250
1068 269 1049T316 1029ZM316 1007Q297 1007 281 1014T252 1033T232 1062T224 1096Q224 1134 251 1160T316 1187Q335 1187 352 1180T382 1161T402 1132T409 1096Q409 1078 402 1062T382 1034T352 1014T316 1007ZM365 1079H406L325 959H296L365 1079Z" />
<glyph unicode="&#x1fb;" glyph-name="aringacute" horiz-adv-x="521" d="M225 -8Q144 -8 95 29T46 139Q46 184 65 214T116 263T191 288T281 296H411V347Q411 428 376 464T265 501Q202 501 158 473T103 380H69Q74 419 92 447T136 494T196 522T266 531Q354 531
399 486T445 347V0H411V89Q388 50 342 21T225 -8ZM227 21Q264 21 297 32T356 61T396 105T411 160V268H281Q239 268 203 263T139 243T96 204T80 139Q80 82 117 52T227 21ZM267 877Q296 877 315 896T334 944Q334 973 315 992T267 1012Q240 1012 221 993T201 944Q201
916 220 897T267 877ZM267 855Q248 855 232 862T203 881T183 910T175 944Q175 982 202 1008T267 1035Q286 1035 303 1028T333 1009T353 980T360 944Q360 926 353 910T333 882T303 862T267 855ZM317 950H358L277 830H248L317 950Z" />
<glyph unicode="&#x1fc;" glyph-name="AEacute" horiz-adv-x="943" d="M387 715H878V685H507V384H808V353H507V31H896V0H471V228H180L66 0H28L387 715ZM195 258H471V685H408L195 258ZM655 891H696L615 771H586L655 891Z" />
<glyph unicode="&#x1fd;" glyph-name="aeacute" horiz-adv-x="909" d="M652 -8Q569 -8 515 32T435 141Q426 105 406 77T358 30T296 2T226 -8Q145 -8 96 29T46 138Q46 183 64 213T115 260T189 285T278 292H414V346Q414 427 378 464T266 501Q203 501 159 473T103
380H69Q74 419 92 447T137 494T197 522T267 531Q342 531 386 497T441 394Q468 458 521 494T645 531Q693 531 733 515T804 467T850 388T867 279V264H448Q449 149 500 86T652 22Q720 22 766 52T829 144H863Q845 71 789 32T652 -8ZM228 21Q265 21 299 32T358 64T399
114T414 180V264H279Q237 264 201 259T138 240T96 202T80 138Q80 80 118 51T228 21ZM832 292Q830 396 779 448T645 501Q604 501 569 486T508 444T467 379T448 292H832ZM508 747H549L465 600H437L508 747Z" />
<glyph unicode="&#x1fe;" glyph-name="Oslashacute" horiz-adv-x="795" d="M45 2L141 108Q98 156 75 218T51 353V361Q51 437 77 503T151 617T261 694T398 722Q463 722 519 700T621 640L709 738L731 716L644 619Q691 571 717 506T744 364V356Q744 280 718 214T645
99T536 22T400 -7Q329 -7 269 17T162 86L67 -20L45 2ZM400 24Q467 24 523 49T620 119T684 224T707 356V364Q707 433 685 492T622 596L184 110Q226 69 280 47T400 24ZM88 353Q88 287 108 232T163 133L600 617Q560 652 509 672T398 692Q330 692 273 667T175 597T111
492T88 361V353ZM445 891H486L405 771H376L445 891Z" />
<glyph unicode="&#x1ff;" glyph-name="oslashacute" horiz-adv-x="583" d="M36 0L105 77Q76 112 59 157T42 257V265Q42 324 62 372T116 456T196 510T293 530Q340 530 381 515T455 470L518 540L540 521L476 449Q506 415 523 369T541 266V258Q541 199 521 150T467
66T388 12T291 -8Q243 -8 201 8T125 56L58 -19L36 0ZM292 22Q336 22 375 38T443 85T489 159T506 258V266Q506 316 492 356T454 425L146 80Q175 52 212 37T292 22ZM77 257Q77 209 90 170T127 101L434 446Q405 473 369 487T293 501Q249 501 210 485T142 438T95 364T77
265V257ZM340 747H381L297 600H269L340 747Z" />
<glyph unicode="&#x218;" glyph-name="Scommaaccent" horiz-adv-x="586" d="M299 -7Q236 -7 190 9T112 52T63 117T39 197H74Q79 162 93 131T135 76T202 38T299 24Q346 24 383 36T445 71T484 123T498 189Q498 231 487 259T452 306T389 337T295 357Q175 374 122
417T68 540Q68 582 84 615T129 672T199 709T290 722Q386 722 441 678T510 553H476Q463 619 419 655T290 692Q202 692 153 654T103 542Q103 510 112 486T145 443T206 411T300 390Q361 381 405 368T477 332T520 275T534 190Q534 149 518 113T472 51T398 9T299 -7ZM222
-184L280 -44L314 -53L246 -195L222 -184Z" />
<glyph unicode="&#x219;" glyph-name="scommaaccent" horiz-adv-x="456" d="M235 -9Q144 -9 93 36T36 154H69Q77 96 116 58T235 20Q306 20 343 53T380 136Q380 164 373 183T348 216T302 237T234 254Q188 262 154 272T98 299T65 338T54 396Q54 427 67 451T104 493T158
520T225 530Q296 530 343 498T402 394H369Q348 501 224 501Q162 501 124 473T86 396Q86 370 94 353T121 322T170 300T242 284Q285 276 317 266T371 240T403 199T414 138Q414 107 402 81T367 34T311 3T235 -9ZM165 -184L223 -44L257 -53L189 -195L165 -184Z" />
<glyph unicode="&#x21a;" glyph-name="uni021A" horiz-adv-x="558" d="M261 685H31V715H528V685H297V0H261V685ZM214 -184L272 -44L306 -53L238 -195L214 -184Z" />
<glyph unicode="&#x21b;" glyph-name="uni021B" horiz-adv-x="328" d="M221 -7Q165 -7 134 25T102 123V494H23V523H102V642H136V523H282V494H136V125Q136 71 160 47T223 23Q244 23 259 26T289 34V4Q276 -1 261 -4T221 -7ZM371 -184L429 -44L463 -53L395 -195L371 -184Z" />
<glyph unicode="&#x237;" glyph-name="uni0237" horiz-adv-x="200" d="M6 -156Q51 -152 67 -130T83 -60V523H117V-58Q117 -121 93 -152T6 -186V-156Z" />
<glyph unicode="&#x2c6;" glyph-name="circumflex" horiz-adv-x="400" d="M184 729H218L327 600H297L201 700L103 600H73L184 729Z" />
<glyph unicode="&#x2c7;" glyph-name="caron" horiz-adv-x="400" d="M73 742H103L200 642L297 742H327L216 613H182L73 742Z" />
<glyph unicode="&#x2d8;" glyph-name="breve" horiz-adv-x="400" d="M200 614Q150 614 119 645T83 728H113Q117 690 139 667T200 643Q237 643 260 666T289 728H318Q315 677 282 646T200 614Z" />
<glyph unicode="&#x2d9;" glyph-name="dotaccent" horiz-adv-x="400" d="M200 637Q189 637 182 645T174 664Q174 675 181 682T200 690Q211 690 219 683T227 664Q227 653 219 645T200 637Z" />
<glyph unicode="&#x2da;" glyph-name="ring" horiz-adv-x="400" d="M200 625Q229 625 248 644T267 692Q267 721 248 740T200 760Q173 760 154 741T134 692Q134 664 153 645T200 625ZM200 603Q181 603 165 610T136 629T116 658T108 692Q108 730 135 756T200 783Q219
783 236 776T266 757T286 728T293 692Q293 674 286 658T266 630T236 610T200 603Z" />
<glyph unicode="&#x2db;" glyph-name="ogonek" horiz-adv-x="400" d="M213 -182Q171 -182 149 -162T127 -110Q127 -75 151 -47T207 0H241Q203 -26 182 -51T160 -106Q160 -127 174 -141T217 -155Q242 -155 266 -146V-172Q243 -182 213 -182Z" />
<glyph unicode="&#x2dc;" glyph-name="tilde" horiz-adv-x="400" d="M270 615Q251 615 233 624T199 644T167 664T137 673Q120 673 106 659T87 615H60Q65 660 86 681T138 703Q156 703 173 694T207 674T240 653T271 644Q288 644 302 659T320 703H347Q342 658 321
637T270 615Z" />
<glyph unicode="&#x2dd;" glyph-name="hungarumlaut" horiz-adv-x="400" d="M177 747H215L150 600H122L177 747ZM295 747H333L268 600H240L295 747Z" />
</font>
</defs>
</svg>
